<?xml version="1.0" encoding="UTF-8"?>
<svg version="1.1" xmlns="http://www.w3.org/2000/svg" width="500" height="500">
<path d="M0 0 C165 0 330 0 500 0 C500 165 500 330 500 500 C335 500 170 500 0 500 C0 335 0 170 0 0 Z " fill="#88EEEA" transform="translate(0,0)"/>
<path d="M0 0 C0.61778824 0.21298233 1.23557648 0.42596466 1.87208557 0.645401 C3.88372687 1.34161253 5.89105743 2.04941821 7.8984375 2.7578125 C9.31145313 3.24986616 10.72462307 3.74147688 12.13793945 4.23266602 C23.16890438 8.08119786 34.14476401 12.08204366 45.08642578 16.17724609 C51.79147408 18.6731761 58.51652655 20.94289676 65.36889648 23.00073242 C67.78220857 23.73363118 70.16767244 24.50775183 72.55078125 25.33203125 C74.36255859 25.94498047 74.36255859 25.94498047 76.2109375 26.5703125 C77.41621094 26.98667969 78.62148438 27.40304688 79.86328125 27.83203125 C83.57933276 28.91132066 87.10981652 29.04518965 90.96875 29.1875 C98.59666449 29.64205646 104.39793826 32.01069101 111.2109375 35.3203125 C113.5489545 36.40867988 115.88750709 37.49589736 118.2265625 38.58203125 C119.39251953 39.13165527 120.55847656 39.6812793 121.75976562 40.24755859 C127.28039708 42.81684636 132.868384 45.22515885 138.4609375 47.6328125 C140.37122308 48.46063912 142.28139269 49.28873345 144.19140625 50.1171875 C145.55200917 50.7059006 146.91265471 51.29451528 148.2734375 51.8828125 C148.2734375 52.5428125 148.2734375 53.2028125 148.2734375 53.8828125 C76.08622692 71.8828125 76.08622692 71.8828125 67.2734375 71.8828125 C67.2734375 72.5428125 67.2734375 73.2028125 67.2734375 73.8828125 C67.9334375 73.8828125 68.5934375 73.8828125 69.2734375 73.8828125 C72.18147264 77.69960862 73.95792626 81.27852316 75.2734375 85.8828125 C82.33035542 85.3256874 88.47810739 81.74636591 94.2734375 77.8828125 C92.5379919 84.05328576 87.69466675 88.46158325 83.2734375 92.8828125 C88.91743108 95.32345837 94.25095228 95.07570349 100.2734375 94.8828125 C95.6328125 100.94140625 95.6328125 100.94140625 91.2734375 101.8828125 C91.74394531 102.95917969 92.21445312 104.03554687 92.69921875 105.14453125 C93.32868631 106.61955225 93.9575601 108.09482674 94.5859375 109.5703125 C94.89466797 110.27220703 95.20339844 110.97410156 95.52148438 111.69726562 C100.27721491 122.96083794 101.73871682 133.84453099 101.5234375 146.0078125 C101.51828125 147.21179688 101.513125 148.41578125 101.5078125 149.65625 C101.42925547 158.41535858 101.42925547 158.41535858 100.2734375 161.8828125 C99.52161097 165.2119084 99.52161097 165.2119084 100.2734375 168.8828125 C102.06699345 170.8944435 104.01954732 172.47948788 106.125 174.16015625 C118.99725013 184.48136044 126.29613438 202.86465991 128.2734375 218.8828125 C129.58381001 241.42226178 126.76426413 265.58287361 116.2734375 285.8828125 C115.84417969 286.73875 115.41492188 287.5946875 114.97265625 288.4765625 C109.23186108 299.4939376 101.79839795 308.89438632 93.2734375 317.8828125 C92.39816406 318.8109375 91.52289063 319.7390625 90.62109375 320.6953125 C83.71915431 327.83035709 83.71915431 327.83035709 79.2734375 328.8828125 C77.52834065 330.51994483 77.52834065 330.51994483 75.9609375 332.5703125 C70.48263592 339.03631625 64.94362336 343.26460255 57.5234375 347.3203125 C56.86085938 347.68705078 56.19828125 348.05378906 55.515625 348.43164062 C53.80950231 349.33170739 52.04353812 350.11618442 50.2734375 350.8828125 C49.2834375 350.5528125 48.2934375 350.2228125 47.2734375 349.8828125 C47.50417969 348.84511719 47.73492187 347.80742187 47.97265625 346.73828125 C50.48850178 334.99984812 52.33782918 323.20085602 54.0234375 311.3203125 C54.13593842 310.53143646 54.24843933 309.74256042 54.36434937 308.92977905 C54.68628587 306.66326715 55.00434133 304.39625683 55.3203125 302.12890625 C55.41699722 301.44217834 55.51368195 300.75545044 55.61329651 300.0479126 C55.99096643 297.29492688 56.2734375 294.66608982 56.2734375 291.8828125 C55.85570068 292.33084229 55.43796387 292.77887207 55.00756836 293.24047852 C53.07664078 295.30995754 51.14380044 297.37764103 49.2109375 299.4453125 C48.55416016 300.14978516 47.89738281 300.85425781 47.22070312 301.58007812 C43.49692991 305.56066329 39.72569757 309.47431083 35.83691406 313.29418945 C33.56283461 315.60484451 31.47121251 318.06078912 29.35546875 320.515625 C26.71297971 323.52003092 23.99522436 326.45033639 21.2734375 329.3828125 C17.49010347 333.46220835 13.76352141 337.57500676 10.12109375 341.78125 C7.66424868 344.57571648 5.15998434 347.32501691 2.6484375 350.0703125 C2.19267334 350.56990479 1.73690918 351.06949707 1.26733398 351.58422852 C-1.65400395 354.76849216 -4.65257909 357.84767004 -7.7265625 360.8828125 C-11.0174613 359.78584623 -11.69452967 359.03479394 -13.8515625 356.4453125 C-20.8962404 348.15053518 -28.28777669 340.17163929 -35.67578125 332.18359375 C-41.8996952 325.45338111 -48.10195005 318.70365087 -54.2265625 311.8828125 C-57.64638483 308.07479412 -61.08475178 304.28452556 -64.5390625 300.5078125 C-64.99539062 300.00765625 -65.45171875 299.5075 -65.921875 298.9921875 C-68.46087169 296.22101117 -71.06102096 293.53177597 -73.7265625 290.8828125 C-71.62813648 307.05083789 -69.28552312 323.10310333 -66.30200195 339.13183594 C-66.09663818 340.23817383 -65.89127441 341.34451172 -65.6796875 342.484375 C-65.49567383 343.45713379 -65.31166016 344.42989258 -65.12207031 345.43212891 C-64.7265625 347.8828125 -64.7265625 347.8828125 -64.7265625 350.8828125 C-78.82227504 347.00138441 -90.10484049 338.2395936 -98.5234375 326.34375 C-104.7549714 314.84233866 -106.86037245 300.8901859 -106.9296875 287.9765625 C-106.93538757 287.13420044 -106.94108765 286.29183838 -106.94696045 285.4239502 C-106.95636601 283.64560177 -106.96292665 281.86723627 -106.96679688 280.08886719 C-106.97643445 277.41829457 -107.00747193 274.74851532 -107.0390625 272.078125 C-107.10459538 261.59475473 -106.33059736 252.0887264 -103.7265625 241.8828125 C-103.49050293 240.9438916 -103.25444336 240.0049707 -103.01123047 239.03759766 C-102.38755062 236.66217121 -101.72550116 234.3032604 -101.0390625 231.9453125 C-100.81412109 231.15447266 -100.58917969 230.36363281 -100.35742188 229.54882812 C-99.81901164 227.65866455 -99.27362168 225.77049102 -98.7265625 223.8828125 C-99.2834375 223.53089844 -99.8403125 223.17898438 -100.4140625 222.81640625 C-109.70128634 216.80794893 -116.82528598 211.03810893 -121.7265625 200.8828125 C-121.7265625 200.2228125 -121.7265625 199.5628125 -121.7265625 198.8828125 C-122.3865625 198.8828125 -123.0465625 198.8828125 -123.7265625 198.8828125 C-123.9946875 199.42679688 -124.2628125 199.97078125 -124.5390625 200.53125 C-125.38966577 202.21566832 -126.26798164 203.88620341 -127.1640625 205.546875 C-130.5442408 211.95231288 -133.03007783 217.65008703 -133.7265625 224.8828125 C-133.82066406 225.82511719 -133.91476563 226.76742187 -134.01171875 227.73828125 C-135.41684259 257.31793956 -121.66129725 298.86884573 -102.7890625 321.6328125 C-101.768125 322.7465625 -101.768125 322.7465625 -100.7265625 323.8828125 C-101.0565625 324.5428125 -101.3865625 325.2028125 -101.7265625 325.8828125 C-123.27073504 305.74181753 -135.9058786 282.64442534 -142.7265625 253.8828125 C-142.99210937 252.8 -143.25765625 251.7171875 -143.53125 250.6015625 C-148.04220544 228.60293049 -144.45903223 205.05877225 -132.89453125 185.88671875 C-128.24751113 179.44787466 -122.34112062 173.29251792 -115.7265625 168.8828125 C-115.8709375 167.6246875 -116.0153125 166.3665625 -116.1640625 165.0703125 C-116.24527344 164.36261719 -116.32648438 163.65492188 -116.41015625 162.92578125 C-116.69826985 160.68884857 -116.69826985 160.68884857 -117.7265625 157.8828125 C-118.58991616 144.46027929 -118.6211249 130.82912039 -114.7265625 117.8828125 C-114.47519531 116.944375 -114.22382813 116.0059375 -113.96484375 115.0390625 C-112.6664308 110.36752383 -111.0832043 106.14721194 -108.7265625 101.8828125 C-109.2834375 101.6353125 -109.8403125 101.3878125 -110.4140625 101.1328125 C-115.19507509 98.54848137 -118.18717042 95.69429223 -120.7265625 90.8828125 C-120.13230469 91.099375 -119.53804687 91.3159375 -118.92578125 91.5390625 C-112.37133928 93.74086571 -106.6131247 94.23630524 -99.7265625 93.8828125 C-100.4071875 93.2228125 -101.0878125 92.5628125 -101.7890625 91.8828125 C-105.29381597 88.38813016 -108.49878038 84.63150471 -111.7265625 80.8828125 C-111.3965625 80.2228125 -111.0665625 79.5628125 -110.7265625 78.8828125 C-109.53160156 79.64078125 -109.53160156 79.64078125 -108.3125 80.4140625 C-107.25289062 81.06375 -106.19328125 81.7134375 -105.1015625 82.3828125 C-104.05742187 83.0325 -103.01328125 83.6821875 -101.9375 84.3515625 C-98.41683987 86.3132575 -98.41683987 86.3132575 -92.7265625 85.8828125 C-90.0865625 80.9328125 -87.4465625 75.9828125 -84.7265625 70.8828125 C-86.62341797 70.70105469 -86.62341797 70.70105469 -88.55859375 70.515625 C-93.91880965 69.91621648 -99.14193404 68.88072943 -104.4140625 67.7578125 C-105.92806641 67.43937378 -105.92806641 67.43937378 -107.47265625 67.11450195 C-120.9377063 64.24728379 -134.33239832 61.06185949 -147.7265625 57.8828125 C-147.7265625 56.8928125 -147.7265625 55.9028125 -147.7265625 54.8828125 C-146.95699219 54.60050781 -146.18742187 54.31820312 -145.39453125 54.02734375 C-136.74300505 50.71626582 -128.42770986 46.87903948 -120.1015625 42.8203125 C-98.7359182 32.43037304 -76.98851559 22.94726672 -55.1640625 13.5703125 C-54.29385468 13.19580963 -53.42364685 12.82130676 -52.52706909 12.43545532 C-47.45982675 10.25702085 -42.38362898 8.10160009 -37.29705811 5.96868896 C-34.61820633 4.83703868 -31.95046459 3.68117863 -29.28173828 2.52587891 C-27.50468832 1.77528539 -25.72719571 1.0257388 -23.94921875 0.27734375 C-23.14125351 -0.07910721 -22.33328827 -0.43555817 -21.50083923 -0.80281067 C-13.6258393 -4.06349377 -8.01709588 -2.79053243 0 0 Z " fill="#03CEC0" transform="translate(255.7265625,79.1171875)"/>
<path d="M0 0 C1.11003081 1.11003081 2.21809301 2.22205619 3.3203125 3.33984375 C4.54005988 4.54540802 5.78908287 5.72157578 7.0546875 6.87890625 C21.07185168 20.04728021 29.39207362 38.6747444 30.28515625 57.85546875 C30.83694662 78.83335621 27.73702632 101.15867832 18 120 C17.35611328 121.28390625 17.35611328 121.28390625 16.69921875 122.59375 C10.95842358 133.6111251 3.52496045 143.01157382 -5 152 C-6.31291016 153.3921875 -6.31291016 153.3921875 -7.65234375 154.8125 C-14.55428319 161.94754459 -14.55428319 161.94754459 -19 163 C-20.74509685 164.63713233 -20.74509685 164.63713233 -22.3125 166.6875 C-27.79080158 173.15350375 -33.32981414 177.38179005 -40.75 181.4375 C-41.41257812 181.80423828 -42.07515625 182.17097656 -42.7578125 182.54882812 C-44.46393519 183.44889489 -46.22989938 184.23337192 -48 185 C-48.99 184.67 -49.98 184.34 -51 184 C-50.62016968 182.20199951 -50.62016968 182.20199951 -50.23266602 180.36767578 C-47.46301111 167.03023121 -45.40488164 153.6663488 -43.57006836 140.17285156 C-41.03945434 121.67642456 -41.03945434 121.67642456 -38 113 C-45.14921172 113.32631257 -51.38941231 113.97649116 -56.57421875 119.22265625 C-59.39561962 122.42043586 -61.99227439 125.78969557 -64.5703125 129.18505859 C-66.49512385 131.6285435 -68.63807486 133.77992524 -70.875 135.9375 C-74.11452853 139.09486658 -77.12294636 142.35561731 -80.0703125 145.78515625 C-82.41924225 148.48119506 -84.83016731 151.11781981 -87.25 153.75 C-87.71180664 154.25297607 -88.17361328 154.75595215 -88.64941406 155.27416992 C-91.13322225 157.97691172 -93.62321604 160.67382294 -96.1171875 163.3671875 C-96.62088867 163.9127832 -97.12458984 164.45837891 -97.64355469 165.02050781 C-98.6136125 166.07113734 -99.5855494 167.12003574 -100.55957031 168.16699219 C-103.07160545 170.87326333 -103.07160545 170.87326333 -105 174 C-108 174 -108 174 -109.5078125 172.6015625 C-110.04148437 171.94929687 -110.57515625 171.29703125 -111.125 170.625 C-111.74117188 169.89023437 -112.35734375 169.15546875 -112.9921875 168.3984375 C-113.65476563 167.60695313 -114.31734375 166.81546875 -115 166 C-116.4091898 164.41000849 -117.82618754 162.82691058 -119.25 161.25 C-120.00539062 160.41210938 -120.76078125 159.57421875 -121.5390625 158.7109375 C-124.69623603 155.23303523 -127.87629599 151.77646573 -131.0559082 148.3190918 C-134.11412578 144.98650811 -137.10398303 141.604379 -140.0625 138.18359375 C-142.12349938 135.86081421 -144.23433864 133.59118 -146.35473633 131.32275391 C-148.9237061 128.56714449 -151.46647625 125.78819338 -154 123 C-154.74894531 122.17628906 -155.49789062 121.35257812 -156.26953125 120.50390625 C-175.63528083 97.85323662 -177.43501737 68.40998043 -177 40 C-176.19502075 40.15819214 -176.19502075 40.15819214 -175.3737793 40.31958008 C-164.77398389 42.39362434 -154.18752815 44.40932572 -143.4831543 45.87231445 C-129.25151908 47.94944982 -116.79941103 54.37157155 -107 65 C-107 65.66 -107 66.32 -107 67 C-106.34 67 -105.68 67 -105 67 C-104.75378906 66.42121094 -104.50757813 65.84242188 -104.25390625 65.24609375 C-99.1514866 56.10624547 -88.08858634 50.79661548 -78.52001953 47.68481445 C-74.13761203 46.4938967 -69.69050482 46.0178162 -65.1875 45.5 C-44.06948709 42.80799123 -23.07453568 37.16335717 -9 20 C-4.65537338 13.6501611 -1.31757936 7.61268077 0 0 Z " fill="#00DFD2" transform="translate(354,245)"/>
<path d="M0 0 C-1.09957031 0.64066406 -2.19914063 1.28132812 -3.33203125 1.94140625 C-11.65955169 6.80800429 -19.9197743 11.72952881 -28 17 C-27.01 16.51789063 -26.02 16.03578125 -25 15.5390625 C-23.66685235 14.90065377 -22.33350839 14.26265487 -21 13.625 C-20.35160156 13.30789062 -19.70320312 12.99078125 -19.03515625 12.6640625 C-10.52496783 8.61961652 -2.20554495 7.44789294 7.125 6.8125 C8.71248047 6.64137695 8.71248047 6.64137695 10.33203125 6.46679688 C13.45716361 6.26878033 15.96092201 6.23268831 19 7 C21.86684671 9.60916051 23.41147604 12.49632952 25 16 C25.48210937 17.00804687 25.96421875 18.01609375 26.4609375 19.0546875 C30.95315477 32.9152895 30.86875391 48.64603897 24.4375 61.875 C18.02992851 74.16264315 8.65419337 82.16398566 -4.49755859 86.38696289 C-8.91949436 87.4702293 -13.27791902 87.53115331 -17.8125 87.5 C-18.78082764 87.49427979 -19.74915527 87.48855957 -20.74682617 87.48266602 C-28.35383831 87.29308117 -34.45865996 86.07663799 -41 82 C-41.77988281 81.5153125 -42.55976563 81.030625 -43.36328125 80.53125 C-49.19446015 76.42223274 -53.39150719 71.15292878 -57.73828125 65.57421875 C-60.44013147 62.49905589 -62.37792379 61.35071918 -66.3125 60.5 C-72.04245344 61.56603785 -75.76952086 66.65599352 -79.375 70.9375 C-86.63107298 79.38945138 -95.12276782 84.55755316 -106 87 C-120.00794487 87.98946129 -132.10049061 86.74771276 -143.3671875 77.4609375 C-145.69657805 75.37674596 -147.89970179 73.32138223 -150 71 C-150.49371094 70.46117187 -150.98742187 69.92234375 -151.49609375 69.3671875 C-160.13197001 59.07305071 -161.97017343 44.13921553 -161.23535156 31.10693359 C-160.82436543 27.42766976 -159.85382438 23.96298832 -158.75 20.4375 C-158.44328369 19.45644287 -158.44328369 19.45644287 -158.13037109 18.45556641 C-156.6685029 14.16277884 -154.90612382 10.49160663 -152 7 C-149.6953125 6.37890625 -149.6953125 6.37890625 -147.125 6.5625 C-146.15304688 6.62179688 -145.18109375 6.68109375 -144.1796875 6.7421875 C-143.13039062 6.82726562 -142.08109375 6.91234375 -141 7 C-139.90945312 7.02320313 -138.81890625 7.04640625 -137.6953125 7.0703125 C-128.41546046 7.38595373 -120.58842901 9.74024613 -112 13 C-114.24492973 11.50338018 -116.49547269 10.06364256 -118.79296875 8.65234375 C-119.50517578 8.21212891 -120.21738281 7.77191406 -120.95117188 7.31835938 C-122.4522895 6.3914684 -123.9549176 5.46701956 -125.45898438 4.54492188 C-126.16732422 4.10599609 -126.87566406 3.66707031 -127.60546875 3.21484375 C-128.25668701 2.81386475 -128.90790527 2.41288574 -129.57885742 1.99975586 C-130.04783447 1.66983643 -130.51681152 1.33991699 -131 1 C-131 0.67 -131 0.34 -131 0 C-111.30344757 0.0850823 -94.81624576 10.21067051 -81.28515625 23.7109375 C-75.14970511 30.38344404 -67 41.63572739 -67 51 C-66.34 51 -65.68 51 -65 51 C-64.896875 50.4740625 -64.79375 49.948125 -64.6875 49.40625 C-59.75524348 32.14335219 -46.86723738 17.04341105 -31.45703125 8.30859375 C-23.50283406 4.07225661 -15.84476905 1.79874189 -7 0 C-5.63101563 -0.31904297 -5.63101563 -0.31904297 -4.234375 -0.64453125 C-2 -1 -2 -1 0 0 Z " fill="#F5FBFB" transform="translate(313,180)"/>
<path d="M0 0 C2 1 2 1 3.03515625 3.73046875 C3.37417969 4.87128906 3.71320313 6.01210937 4.0625 7.1875 C4.40410156 8.31542969 4.74570312 9.44335938 5.09765625 10.60546875 C10.07034325 29.31224364 9.02554549 51.91427763 -0.625 68.8125 C-11.72896337 85.50941909 -27.8496746 94.56108158 -47.25 98.6875 C-51.98114472 99.57032185 -56.66011144 100.19571996 -61.44799805 100.66015625 C-75.72645315 102.06926699 -89.00358939 106.61045601 -98.5 117.9375 C-99.325 118.948125 -100.15 119.95875 -101 121 C-101.66 121 -102.32 121 -103 121 C-104.04497358 119.83034207 -105.036096 118.61231908 -106 117.375 C-110.03847869 112.62286084 -114.5483176 109.91278087 -120 107 C-120.61230469 106.61972656 -121.22460938 106.23945313 -121.85546875 105.84765625 C-129.92292556 101.12828306 -140.05577346 100.55613226 -149.16796875 99.25390625 C-150.04356445 99.12765869 -150.91916016 99.00141113 -151.82128906 98.87133789 C-153.51596472 98.63080022 -155.21190605 98.39895393 -156.90917969 98.17749023 C-162.53403502 97.39511567 -167.67503332 95.96849374 -173 94 C-172.27236191 127.08542235 -168.3140456 156.00043924 -145 181 C-144.41702148 181.62583984 -143.83404297 182.25167969 -143.23339844 182.89648438 C-140.83193996 185.46826827 -138.42735285 188.03691054 -136.01049805 190.59423828 C-131.82537971 195.04168995 -127.95880552 199.67172877 -124.1484375 204.4453125 C-121.1027785 208.06687792 -117.74878337 211.33143767 -114.37109375 214.640625 C-105.51602301 223.45193098 -105.51602301 223.45193098 -104 228 C-103.01 228 -102.02 228 -101 228 C-100.72849121 227.40630615 -100.45698242 226.8126123 -100.17724609 226.20092773 C-99.02088655 224.03904859 -97.84742555 222.55293173 -96.1640625 220.78515625 C-95.60017822 220.18775635 -95.03629395 219.59035645 -94.45532227 218.97485352 C-93.85131592 218.34377686 -93.24730957 217.7127002 -92.625 217.0625 C-91.35515309 215.7190483 -90.08562762 214.3752927 -88.81640625 213.03125 C-88.17719238 212.35707031 -87.53797852 211.68289063 -86.87939453 210.98828125 C-84.08569426 208.03272202 -81.32073182 205.05113833 -78.5625 202.0625 C-78.0667749 201.52616943 -77.5710498 200.98983887 -77.06030273 200.43725586 C-73.8280399 196.9293949 -70.68202752 193.35721142 -67.56640625 189.74609375 C-65.98343508 187.98153487 -64.32787072 186.33606505 -62.625 184.6875 C-59.58432338 181.74227063 -57.07773428 178.54292361 -54.5 175.1875 C-50.95344535 170.8082239 -48.80601443 168.62207297 -43 168 C-42.19691406 167.896875 -41.39382813 167.79375 -40.56640625 167.6875 C-38.37905205 167.41450728 -36.19592745 167.18921824 -34 167 C-35.13669877 176.32092989 -38.86329204 181.47580909 -45.25 188 C-45.89324219 188.67289063 -46.53648437 189.34578125 -47.19921875 190.0390625 C-50.88623789 193.88187119 -54.63878196 197.65605535 -58.42993164 201.39599609 C-60.70110239 203.71625606 -62.79901137 206.17424796 -64.91796875 208.6328125 C-67.56045779 211.63721842 -70.27821314 214.56752389 -73 217.5 C-76.78333403 221.57939585 -80.50991609 225.69219426 -84.15234375 229.8984375 C-86.60918882 232.69290398 -89.11345316 235.44220441 -91.625 238.1875 C-92.08076416 238.68709229 -92.53652832 239.18668457 -93.00610352 239.70141602 C-95.92744145 242.88567966 -98.92601659 245.96485754 -102 249 C-105.2908988 247.90303373 -105.96796717 247.15198144 -108.125 244.5625 C-115.1696779 236.26772268 -122.56121419 228.28882679 -129.94921875 220.30078125 C-136.1731327 213.57056861 -142.37538755 206.82083837 -148.5 200 C-151.91982233 196.19198162 -155.35818928 192.40171306 -158.8125 188.625 C-159.49699219 187.87476563 -159.49699219 187.87476563 -160.1953125 187.109375 C-162.73430919 184.33819867 -165.33445846 181.64896347 -168 179 C-165.90157398 195.16802539 -163.55896062 211.22029083 -160.57543945 227.24902344 C-160.37007568 228.35536133 -160.16471191 229.46169922 -159.953125 230.6015625 C-159.76911133 231.57432129 -159.58509766 232.54708008 -159.39550781 233.54931641 C-159 236 -159 236 -159 239 C-173.09571254 235.11857191 -184.37827799 226.3567811 -192.796875 214.4609375 C-199.0284089 202.95952616 -201.13380995 189.0073734 -201.203125 176.09375 C-201.20882507 175.25138794 -201.21452515 174.40902588 -201.22039795 173.5411377 C-201.22980351 171.76278927 -201.23636415 169.98442377 -201.24023438 168.20605469 C-201.24987195 165.53548207 -201.28090943 162.86570282 -201.3125 160.1953125 C-201.37803288 149.71194223 -200.60403486 140.2059139 -198 130 C-197.76394043 129.0610791 -197.52788086 128.1221582 -197.28466797 127.15478516 C-196.66098812 124.77935871 -195.99893866 122.4204479 -195.3125 120.0625 C-195.08755859 119.27166016 -194.86261719 118.48082031 -194.63085938 117.66601562 C-194.09244914 115.77585205 -193.54705918 113.88767852 -193 112 C-193.556875 111.64808594 -194.11375 111.29617188 -194.6875 110.93359375 C-203.97472384 104.92513643 -211.09872348 99.15529643 -216 89 C-216 88.34 -216 87.68 -216 87 C-216.66 87 -217.32 87 -218 87 C-218.268125 87.54398437 -218.53625 88.08796875 -218.8125 88.6484375 C-219.66310327 90.33285582 -220.54141914 92.00339091 -221.4375 93.6640625 C-224.8176783 100.06950038 -227.30351533 105.76727453 -228 113 C-228.09410156 113.94230469 -228.18820313 114.88460937 -228.28515625 115.85546875 C-229.69028009 145.43512706 -215.93473475 186.98603323 -197.0625 209.75 C-196.0415625 210.86375 -196.0415625 210.86375 -195 212 C-195.33 212.66 -195.66 213.32 -196 214 C-217.54417254 193.85900503 -230.1793161 170.76161284 -237 142 C-237.26554687 140.9171875 -237.53109375 139.834375 -237.8046875 138.71875 C-242.31564294 116.72011799 -238.73246973 93.17595975 -227.16796875 74.00390625 C-222.52094863 67.56506216 -216.61455812 61.40970542 -210 57 C-210.144375 55.741875 -210.28875 54.48375 -210.4375 53.1875 C-210.51871094 52.47980469 -210.59992188 51.77210938 -210.68359375 51.04296875 C-210.97170735 48.80603607 -210.97170735 48.80603607 -212 46 C-212.2347023 41.67043279 -212.18517422 37.33525121 -212.1875 33 C-212.19974609 31.79859375 -212.21199219 30.5971875 -212.22460938 29.359375 C-212.22750977 27.63460937 -212.22750977 27.63460937 -212.23046875 25.875 C-212.23457764 24.82054687 -212.23868652 23.76609375 -212.24291992 22.6796875 C-212 20 -212 20 -210 17 C-209.90203125 18.10214844 -209.8040625 19.20429688 -209.703125 20.33984375 C-207.68024021 41.4604506 -204.32245711 62.12224953 -187.26171875 76.4609375 C-175.16145923 86.01505023 -161.66782493 89.69598125 -146.625 91.4375 C-132.39382552 93.11540138 -115.47917157 96.2805638 -105.66796875 107.71875 C-105.11753906 108.4715625 -104.56710938 109.224375 -104 110 C-100.35402567 108.71057005 -97.80187408 107.19704413 -94.875 104.6875 C-83.51074698 95.63749056 -69.73377372 93.09494386 -55.6875 91.125 C-41.18405721 88.92230961 -26.52763697 85.6651795 -15.8203125 74.78515625 C-14 73 -14 73 -12 73 C-11.72929687 72.42507813 -11.45859375 71.85015625 -11.1796875 71.2578125 C-9.98534811 68.97195764 -8.62010695 66.97434706 -7.125 64.875 C-3.96006674 60.17391621 -1.74500034 55.38570561 0 50 C0.3609375 48.89398438 0.721875 47.78796875 1.09375 46.6484375 C2.51421923 40.7817897 2.2977428 34.75518419 2.26074219 28.75610352 C2.25007702 26.70233254 2.26065231 24.64944658 2.2734375 22.59570312 C2.28043062 14.86795336 1.74348798 7.54286914 0 0 Z " fill="#008A7F" transform="translate(350,191)"/>
<path d="M0 0 C0.61778824 0.21298233 1.23557648 0.42596466 1.87208557 0.645401 C3.88372687 1.34161253 5.89105743 2.04941821 7.8984375 2.7578125 C9.31145313 3.24986616 10.72462307 3.74147688 12.13793945 4.23266602 C23.16890438 8.08119786 34.14476401 12.08204366 45.08642578 16.17724609 C51.79147408 18.6731761 58.51652655 20.94289676 65.36889648 23.00073242 C67.78220857 23.73363118 70.16767244 24.50775183 72.55078125 25.33203125 C74.36255859 25.94498047 74.36255859 25.94498047 76.2109375 26.5703125 C77.41621094 26.98667969 78.62148438 27.40304688 79.86328125 27.83203125 C83.57933276 28.91132066 87.10981652 29.04518965 90.96875 29.1875 C98.59666449 29.64205646 104.39793826 32.01069101 111.2109375 35.3203125 C113.5489545 36.40867988 115.88750709 37.49589736 118.2265625 38.58203125 C119.39251953 39.13165527 120.55847656 39.6812793 121.75976562 40.24755859 C127.28039708 42.81684636 132.868384 45.22515885 138.4609375 47.6328125 C140.37122308 48.46063912 142.28139269 49.28873345 144.19140625 50.1171875 C145.55200917 50.7059006 146.91265471 51.29451528 148.2734375 51.8828125 C148.2734375 52.5428125 148.2734375 53.2028125 148.2734375 53.8828125 C79.84112851 70.94652159 79.84112851 70.94652159 56.15649414 73.63110352 C47.83079885 74.64632601 39.74006385 76.47201291 31.5859375 78.3828125 C14.3921874 82.39641185 -2.0138998 85.5507481 -19.7265625 84.8828125 C-17.03403036 62.19261974 0.52444595 38.7245236 17.2734375 23.8828125 C20.51288138 21.38538783 23.81042163 19.05868973 27.2734375 16.8828125 C19.54132704 13.27449428 11.12602883 12.57260196 2.70703125 12.58203125 C1.39038231 12.57560356 1.39038231 12.57560356 0.0471344 12.56904602 C-1.7990534 12.56334478 -3.64526364 12.56277109 -5.49145508 12.56713867 C-8.25838433 12.5702777 -11.02421956 12.54685878 -13.79101562 12.52148438 C-22.38646352 12.49006538 -30.76871405 12.75741974 -39.25390625 14.21484375 C-39.94021622 14.3313176 -40.62652618 14.44779144 -41.33363342 14.5677948 C-53.56299451 16.94351062 -60.65225491 28.10228579 -67.25390625 37.8359375 C-73.88772366 48.35115615 -79.19382529 59.76088158 -84.7265625 70.8828125 C-91.40406113 70.24297063 -97.85584502 69.15465506 -104.4140625 67.7578125 C-105.92806641 67.43937378 -105.92806641 67.43937378 -107.47265625 67.11450195 C-120.9377063 64.24728379 -134.33239832 61.06185949 -147.7265625 57.8828125 C-147.7265625 56.8928125 -147.7265625 55.9028125 -147.7265625 54.8828125 C-146.95699219 54.60050781 -146.18742187 54.31820312 -145.39453125 54.02734375 C-136.74300505 50.71626582 -128.42770986 46.87903948 -120.1015625 42.8203125 C-98.7359182 32.43037304 -76.98851559 22.94726672 -55.1640625 13.5703125 C-54.29385468 13.19580963 -53.42364685 12.82130676 -52.52706909 12.43545532 C-47.45982675 10.25702085 -42.38362898 8.10160009 -37.29705811 5.96868896 C-34.61820633 4.83703868 -31.95046459 3.68117863 -29.28173828 2.52587891 C-27.50468832 1.77528539 -25.72719571 1.0257388 -23.94921875 0.27734375 C-23.14125351 -0.07910721 -22.33328827 -0.43555817 -21.50083923 -0.80281067 C-13.6258393 -4.06349377 -8.01709588 -2.79053243 0 0 Z " fill="#00544B" transform="translate(255.7265625,79.1171875)"/>
<path d="M0 0 C1.11003081 1.11003081 2.21809301 2.22205619 3.3203125 3.33984375 C4.54005988 4.54540802 5.78908287 5.72157578 7.0546875 6.87890625 C21.07185168 20.04728021 29.39207362 38.6747444 30.28515625 57.85546875 C30.83694662 78.83335621 27.73702632 101.15867832 18 120 C17.35611328 121.28390625 17.35611328 121.28390625 16.69921875 122.59375 C10.95842358 133.6111251 3.52496045 143.01157382 -5 152 C-6.31291016 153.3921875 -6.31291016 153.3921875 -7.65234375 154.8125 C-14.55428319 161.94754459 -14.55428319 161.94754459 -19 163 C-20.74509685 164.63713233 -20.74509685 164.63713233 -22.3125 166.6875 C-27.79080158 173.15350375 -33.32981414 177.38179005 -40.75 181.4375 C-41.41257812 181.80423828 -42.07515625 182.17097656 -42.7578125 182.54882812 C-44.46393519 183.44889489 -46.22989938 184.23337192 -48 185 C-48.99 184.67 -49.98 184.34 -51 184 C-50.62016968 182.20199951 -50.62016968 182.20199951 -50.23266602 180.36767578 C-47.46301111 167.03023121 -45.40488164 153.6663488 -43.57006836 140.17285156 C-41.03945434 121.67642456 -41.03945434 121.67642456 -38 113 C-38.63276855 113.15339844 -39.26553711 113.30679688 -39.91748047 113.46484375 C-44.39676874 114.55073182 -48.36457627 115.10748809 -53 115 C-52.43410156 114.01257813 -51.86820312 113.02515625 -51.28515625 112.0078125 C-50.54424241 110.71355794 -49.80335855 109.41928621 -49.0625 108.125 C-48.68931641 107.47402344 -48.31613281 106.82304687 -47.93164062 106.15234375 C-45.89866922 102.61253166 -45.89866922 102.61253166 -44 99 C-42.07598076 98.51899519 -40.14912048 98.04267063 -38.203125 97.66015625 C-33.84255562 96.35353174 -31.52370944 94.78809661 -28.98046875 90.9609375 C-24.40156125 82.51939035 -24.40156125 82.51939035 -23.24609375 73.21484375 C-25.47815855 66.65743058 -30.6437117 61.39524384 -35.375 56.5 C-38.63942566 52.88266345 -39.03693285 48.98680105 -39.578125 44.2578125 C-39.71734375 43.51273437 -39.8565625 42.76765625 -40 42 C-40.66 41.67 -41.32 41.34 -42 41 C-41.03320312 40.64808594 -40.06640625 40.29617188 -39.0703125 39.93359375 C-22.31331519 33.65538309 -9.94351934 24.4591481 -2 8 C-1.06620464 5.29406857 -0.48962584 2.8289493 0 0 Z " fill="#009085" transform="translate(354,245)"/>
<path d="M0 0 C0.88579742 -0.00807175 1.77159485 -0.01614349 2.68423462 -0.02445984 C4.55851313 -0.03825234 6.43281625 -0.04899597 8.30712891 -0.05688477 C10.19392438 -0.06833259 12.08068935 -0.08866828 13.96728516 -0.1184082 C26.21002968 -0.31094478 37.07907411 0.54538792 48.7890625 4.23828125 C45.82596035 7.23562477 42.93805948 9.99568346 39.5390625 12.48828125 C20.46133414 27.16101917 7.34258592 50.34634166 0.7890625 73.23828125 C20.52895164 71.76795252 39.17517002 68.92686067 58.43188477 64.37353516 C68.17320288 62.09105662 77.73483015 60.08955 87.7890625 60.23828125 C87.7890625 60.89828125 87.7890625 61.55828125 87.7890625 62.23828125 C88.4490625 62.23828125 89.1090625 62.23828125 89.7890625 62.23828125 C90.7790625 64.21828125 91.7690625 66.19828125 92.7890625 68.23828125 C92.23669922 68.46902344 91.68433594 68.69976562 91.11523438 68.9375 C62.03210767 81.12976356 31.50910805 93.9855727 14.7890625 122.23828125 C14.1290625 123.22828125 13.4690625 124.21828125 12.7890625 125.23828125 C12.1290625 125.23828125 11.4690625 125.23828125 10.7890625 125.23828125 C10.46035156 124.57183594 10.13164062 123.90539062 9.79296875 123.21875 C-3.77570851 96.9271396 -29.42222332 86.35206811 -54.8371582 74.23974609 C-55.49936371 73.92355316 -56.16156921 73.60736023 -56.84384155 73.28158569 C-58.66485698 72.41319731 -60.48753065 71.54828877 -62.31030273 70.68359375 C-65.2109375 69.23828125 -65.2109375 69.23828125 -68.2109375 67.23828125 C-51.43566015 29.89751592 -51.43566015 29.89751592 -40.47558594 16.78027344 C-39.22164088 15.25133193 -38.03206095 13.67033653 -36.84375 12.08984375 C-30.55944633 4.23961523 -25.05539674 2.33470207 -15.2109375 1.23828125 C-14.34291504 1.07062256 -13.47489258 0.90296387 -12.58056641 0.73022461 C-8.36965901 0.1154602 -4.25026731 0.03748658 0 0 Z " fill="#04E9DF" transform="translate(235.2109375,90.76171875)"/>
<path d="M0 0 C0.94746094 0.0515625 1.89492187 0.103125 2.87109375 0.15625 C3.82113281 0.1871875 4.77117187 0.218125 5.75 0.25 C8.30859375 0.65625 8.30859375 0.65625 11.30859375 2.65625 C13.14010762 3.82577091 14.97363731 4.99213785 16.80859375 6.15625 C19.66042567 7.9654767 22.49840641 9.78279177 25.30859375 11.65625 C24.58671875 11.945 23.86484375 12.23375 23.12109375 12.53125 C18.52579153 16.00325612 16.00488361 21.12924903 14.890625 26.7734375 C14.60837576 33.46677662 16.87226067 39.48123133 20.49609375 44.96875 C25.84847479 50.08324743 30.29392413 51.89701106 37.74609375 52.21875 C45.37868671 51.97082355 50.50994419 49.59842005 55.74609375 44.09375 C57.09507109 41.98934535 58.29389522 39.93932169 59.30859375 37.65625 C59.96859375 37.65625 60.62859375 37.65625 61.30859375 37.65625 C61.63859375 36.33625 61.96859375 35.01625 62.30859375 33.65625 C62.68628906 34.17832031 63.06398438 34.70039063 63.453125 35.23828125 C68.50748976 41.99716246 74.26020878 47.80473832 80.30859375 53.65625 C79.58929688 54.36007813 78.87 55.06390625 78.12890625 55.7890625 C75.33407525 58.57996542 72.77625044 61.55162962 70.18359375 64.53125 C61.7062286 73.94428755 51.93865934 80.09315267 39.13671875 81.00390625 C24.009295 81.68689272 12.89852845 77.42809568 1.68359375 67.28125 C0.89984375 66.415 0.11609375 65.54875 -0.69140625 64.65625 C-1.18511719 64.11742187 -1.67882812 63.57859375 -2.1875 63.0234375 C-10.82337626 52.72930071 -12.66157968 37.79546553 -11.92675781 24.76318359 C-11.51577168 21.08391976 -10.54523063 17.61923832 -9.44140625 14.09375 C-9.23692871 13.43971191 -9.03245117 12.78567383 -8.82177734 12.11181641 C-5.12256256 1.24904283 -5.12256256 1.24904283 0 0 Z " fill="#E6F9F8" transform="translate(163.69140625,186.34375)"/>
<path d="M0 0 C17.63580441 7.27125421 31.5829255 37.9577669 39 54 C39 54.33 39 54.66 39 55 C37.72253906 55.20753906 36.44507813 55.41507813 35.12890625 55.62890625 C21.59586974 57.88169158 8.19480829 60.58088033 -5.19897461 63.53735352 C-16.6379248 66.04337154 -28.1118457 68.43023155 -39.875 68.125 C-40.57496094 68.11597656 -41.27492187 68.10695313 -41.99609375 68.09765625 C-43.66422361 68.07480516 -45.33216928 68.03898825 -47 68 C-44.30746786 45.30980724 -26.74899155 21.8417111 -10 7 C-6.76055612 4.50257533 -3.46301587 2.17587723 0 0 Z " fill="#00978B" transform="translate(283,96)"/>
<path d="M0 0 C3.07865388 1.37961752 5.24298744 3.00123131 7.6875 5.3125 C16.58452244 13.25036389 25.72257824 16.46372462 37.62890625 16.33984375 C42.06912432 15.89222038 45.78249198 14.54846249 49.85546875 12.77734375 C50.56316406 12.52082031 51.27085937 12.26429688 52 12 C52.99 12.495 52.99 12.495 54 13 C48.7674983 19.64805772 43.37941104 25.75845264 37.33203125 31.67578125 C34.71318816 34.285851 32.299777 37.01513128 29.89453125 39.8203125 C27.55958696 42.50670201 25.15884014 45.13010837 22.75 47.75 C22.28811279 48.25305664 21.82622559 48.75611328 21.3503418 49.27441406 C18.86663013 51.97708846 16.37670585 54.6739073 13.8828125 57.3671875 C13.37911133 57.9127832 12.87541016 58.45837891 12.35644531 59.02050781 C11.3863875 60.07113734 10.4144506 61.12003574 9.44042969 62.16699219 C6.92839455 64.87326333 6.92839455 64.87326333 5 68 C2 68 2 68 0.4921875 66.6015625 C-0.04148438 65.94929688 -0.57515625 65.29703125 -1.125 64.625 C-2.04925781 63.52285156 -2.04925781 63.52285156 -2.9921875 62.3984375 C-3.65476563 61.60695313 -4.31734375 60.81546875 -5 60 C-6.4091898 58.41000849 -7.82618754 56.82691058 -9.25 55.25 C-10.00539062 54.41210938 -10.76078125 53.57421875 -11.5390625 52.7109375 C-14.22265589 49.7547251 -16.92253744 46.81394536 -19.625 43.875 C-23.19452478 39.99269126 -26.71383574 36.07473624 -30.1640625 32.0859375 C-33.40022341 28.40910787 -36.73660365 24.82189143 -40.05859375 21.22265625 C-42 19 -42 19 -42 18 C-41.20078125 17.97421875 -40.4015625 17.9484375 -39.578125 17.921875 C-25.33165245 17.18614168 -12.69597889 12.69323087 -2 3 C-1.34 2.01 -0.68 1.02 0 0 Z " fill="#00B0A3" transform="translate(244,351)"/>
<path d="M0 0 C-1.13669877 9.32092989 -4.86329204 14.47580909 -11.25 21 C-11.89324219 21.67289062 -12.53648437 22.34578125 -13.19921875 23.0390625 C-16.88623789 26.88187119 -20.63878196 30.65605535 -24.42993164 34.39599609 C-26.70110239 36.71625606 -28.79901137 39.17424796 -30.91796875 41.6328125 C-33.56045779 44.63721842 -36.27821314 47.56752389 -39 50.5 C-42.78333403 54.57939585 -46.50991609 58.69219426 -50.15234375 62.8984375 C-52.60918882 65.69290398 -55.11345316 68.44220441 -57.625 71.1875 C-58.08076416 71.68709229 -58.53652832 72.18668457 -59.00610352 72.70141602 C-61.92744145 75.88567966 -64.92601659 78.96485754 -68 82 C-71.2908988 80.90303373 -71.96796717 80.15198144 -74.125 77.5625 C-81.1696779 69.26772268 -88.56121419 61.28882679 -95.94921875 53.30078125 C-102.91154385 45.7720897 -109.8347922 38.20962164 -116.67578125 30.5703125 C-118.36910663 28.69769385 -120.07271836 26.83971178 -121.79296875 24.9921875 C-136.66634599 9.00769624 -136.66634599 9.00769624 -137 1 C-135.64631959 0.94474774 -134.29193765 0.90665631 -132.9375 0.875 C-132.18339844 0.85179687 -131.42929688 0.82859375 -130.65234375 0.8046875 C-122.66267219 1.39302856 -119.04200075 4.33996756 -114 10.125 C-113.38479492 10.80788086 -112.76958984 11.49076172 -112.13574219 12.19433594 C-110.40914671 14.11715629 -108.70149503 16.05497448 -107 18 C-105.95585937 19.17949219 -105.95585937 19.17949219 -104.890625 20.3828125 C-103.82209833 21.59889761 -102.75927919 22.82002922 -101.703125 24.046875 C-99.50634095 26.56612276 -97.25310381 29.03102996 -95 31.5 C-92.19368672 34.57558472 -89.40756211 37.66046773 -86.6875 40.8125 C-84.41122504 43.44616113 -82.06767298 46.0031483 -79.6796875 48.53515625 C-79.08583252 49.16639404 -78.49197754 49.79763184 -77.88012695 50.44799805 C-76.67986457 51.72048576 -75.47534393 52.98897195 -74.26635742 54.25317383 C-70 58.77919543 -70 58.77919543 -70 61 C-69.01 61 -68.02 61 -67 61 C-66.72849121 60.40630615 -66.45698242 59.8126123 -66.17724609 59.20092773 C-65.02088655 57.03904859 -63.84742555 55.55293173 -62.1640625 53.78515625 C-61.60017822 53.18775635 -61.03629395 52.59035645 -60.45532227 51.97485352 C-59.85131592 51.34377686 -59.24730957 50.7127002 -58.625 50.0625 C-57.35515309 48.7190483 -56.08562762 47.3752927 -54.81640625 46.03125 C-54.17719238 45.35707031 -53.53797852 44.68289063 -52.87939453 43.98828125 C-50.08569426 41.03272202 -47.32073182 38.05113833 -44.5625 35.0625 C-44.0667749 34.52616943 -43.5710498 33.98983887 -43.06030273 33.43725586 C-39.8280399 29.9293949 -36.68202752 26.35721142 -33.56640625 22.74609375 C-31.98343508 20.98153487 -30.32787072 19.33606505 -28.625 17.6875 C-25.58432338 14.74227063 -23.07773428 11.54292361 -20.5 8.1875 C-16.84554874 3.62879032 -14.78773583 1.6945283 -9 1 C-5.8035914 -0.06546953 -3.34252724 -0.07427838 0 0 Z " fill="#01564E" transform="translate(316,358)"/>
<path d="M0 0 C19.14 0 38.28 0 58 0 C56.35 5.28 54.7 10.56 53 16 C72.74399807 14.5095561 91.37966492 11.6901028 110.64282227 7.13525391 C120.38414038 4.85277537 129.94576765 2.85126875 140 3 C140 3.66 140 4.32 140 5 C140.66 5 141.32 5 142 5 C142.99 6.98 143.98 8.96 145 11 C141.70923306 12.41876289 138.41721966 13.83461176 135.125 15.25 C134.2071875 15.64574219 133.289375 16.04148438 132.34375 16.44921875 C115.64930791 23.62077486 115.64930791 23.62077486 109.5625 25.25 C94.42825196 29.6492127 78.61912985 36.54078061 66.81640625 47.12890625 C65 48 65 48 62.671875 47.44140625 C59.44112997 45.69850432 56.56625978 43.6352464 53.6875 41.375 C53.11499512 40.92769531 52.54249023 40.48039062 51.95263672 40.01953125 C43.34307098 33.19603123 35.52524466 25.45083257 30.76171875 15.3828125 C28.32790846 12.09096266 25.38075176 11.26945403 21.625 10.0625 C20.18863501 9.5654231 18.75375383 9.06403987 17.3203125 8.55859375 C16.60004883 8.30577637 15.87978516 8.05295898 15.13769531 7.79248047 C9.94696656 5.86818792 4.98131421 3.40536063 0 1 C0 0.67 0 0.34 0 0 Z " fill="#00DCCE" transform="translate(183,148)"/>
<path d="M0 0 C3.68769944 1.22923315 4.10848333 2.28914727 6.0625 5.5625 C6.56910156 6.38878906 7.07570313 7.21507812 7.59765625 8.06640625 C15.5990072 24.80460838 11.60203573 47.7356491 7 65 C6.82871582 65.66547852 6.65743164 66.33095703 6.48095703 67.01660156 C1.73625665 85.02002759 -5.97924676 111.03282937 -20 124 C-21.03357147 125.64605826 -22.04060332 127.30963442 -23 129 C-23.99 128.67 -24.98 128.34 -26 128 C-25.54882812 127.15566406 -25.09765625 126.31132812 -24.6328125 125.44140625 C-22.98089242 121.95972781 -21.88450316 118.65358446 -20.875 114.9375 C-20.54242188 113.75027344 -20.20984375 112.56304687 -19.8671875 111.33984375 C-13.92547933 85.2614684 -16.14002739 52.43493837 -27 28 C-27 27.01 -27 26.02 -27 25 C-24.65625 23.421875 -24.65625 23.421875 -21.5 21.75 C-12.05712211 16.45575986 -4.456558 10.1285409 0 0 Z " fill="#00DCCF" transform="translate(362,278)"/>
<path d="M0 0 C0.66 0 1.32 0 2 0 C3.08181187 1.79802527 4.08926543 3.64096092 5.0625 5.5 C10.251594 14.64012615 17.2021815 19.63969498 26 25 C25.82871582 25.57331055 25.65743164 26.14662109 25.48095703 26.73730469 C24.68824918 29.40606995 23.90661541 32.07796591 23.125 34.75 C22.85558594 35.65105469 22.58617187 36.55210937 22.30859375 37.48046875 C18.63907814 50.10002244 17.6514887 62.04446546 17.68432617 75.11621094 C17.68747776 77.73154775 17.66397865 80.34574028 17.63867188 82.9609375 C17.58444479 97.33841319 18.95450403 110.75865053 25 124 C25.67353962 125.66390102 26.34191491 127.32992628 27 129 C25.1875 128.8125 25.1875 128.8125 23 128 C21.96327355 126.35592699 20.96821855 124.68532805 20 123 C18.92604612 121.51400936 17.84229726 120.03505962 16.75 118.5625 C9.06178093 107.58796495 4.26710565 95.25520778 -0.125 82.6875 C-0.38357788 81.95309692 -0.64215576 81.21869385 -0.90856934 80.46203613 C-8.38333612 59.08921789 -15.72967474 35.30481789 -8 13 C-6.23994478 9.47988956 -4.23990452 6.23195137 -2 3 C-1.34 2.01 -0.68 1.02 0 0 Z " fill="#00DCCF" transform="translate(132,278)"/>
<path d="M0 0 C6.50609629 0.5914633 12.21618742 2.65644158 18.3125 4.9375 C20.05176758 5.58525391 20.05176758 5.58525391 21.82617188 6.24609375 C35.41158324 11.37280286 48.70457245 17.20487526 62.02557373 22.97471619 C62.92592346 23.36462234 63.82627319 23.7545285 64.75390625 24.15625 C66.11530731 24.7458828 66.11530731 24.7458828 67.50421143 25.34742737 C74.36657466 28.31218332 81.25277528 31.21672692 88.15234375 34.09375 C89.1443277 34.50741821 90.13631165 34.92108643 91.15835571 35.34729004 C95.03663992 36.96295274 98.91571925 38.57664971 102.79711914 40.18481445 C105.45822855 41.28740413 108.117848 42.39352522 110.77734375 43.5 C111.56906479 43.82625366 112.36078583 44.15250732 113.17649841 44.48864746 C116.33020183 45.80273972 119.14826448 47.09884299 122 49 C113.20857679 49.52555835 106.29070815 48.28512714 98.0625 45.25 C96.07479972 44.54523431 94.08651442 43.84211645 92.09765625 43.140625 C91.0912207 42.78105713 90.08478516 42.42148926 89.04785156 42.05102539 C86.0669424 41.02308451 83.07243918 40.09954055 80.05078125 39.19921875 C70.62173569 36.33980325 61.38965011 32.9081134 52.125 29.5625 C45.89374607 27.31565893 39.65933947 25.07840653 33.41662598 22.86358643 C31.13447984 22.04805666 28.85958735 21.21463774 26.58496094 20.37841797 C25.26267076 19.90638262 23.94009916 19.43513454 22.6171875 18.96484375 C20.93665283 18.35370728 20.93665283 18.35370728 19.22216797 17.73022461 C14.29401227 16.61338011 9.81659965 17.43784053 5.171875 19.3203125 C4.47328369 19.60028076 3.77469238 19.88024902 3.05493164 20.16870117 C1.91399048 20.64206909 1.91399048 20.64206909 0.75 21.125 C-0.08861572 21.46700439 -0.92723145 21.80900879 -1.79125977 22.16137695 C-29.42528646 33.52103853 -56.89206531 45.42003778 -83.90234375 58.19140625 C-84.65987442 58.54939804 -85.41740509 58.90738983 -86.19789124 59.27622986 C-89.88413545 61.02006527 -93.56692825 62.77066691 -97.24438477 64.53295898 C-104.57625594 68.03030045 -111.90044449 71.24911003 -119.5234375 74.07226562 C-121.95475676 74.93361645 -121.95475676 74.93361645 -124 76 C-125.9453125 75.66015625 -125.9453125 75.66015625 -128.125 75.0625 C-128.84945312 74.86785156 -129.57390625 74.67320312 -130.3203125 74.47265625 C-131.15175781 74.23869141 -131.15175781 74.23869141 -132 74 C-132 73.34 -132 72.68 -132 72 C-131.04005127 71.5860498 -130.08010254 71.17209961 -129.09106445 70.74560547 C-119.03325373 66.3888511 -109.08789456 61.82734981 -99.1875 57.125 C-98.39929871 56.75160492 -97.61109741 56.37820984 -96.79901123 55.99349976 C-80.73654941 48.37925944 -64.78439985 40.54306528 -48.83587646 32.69369507 C-30.98887531 23.91227411 -13.06623924 15.32120575 5 7 C4.175 6.5875 3.35 6.175 2.5 5.75 C1.675 5.1725 0.85 4.595 0 4 C0 2.68 0 1.36 0 0 Z " fill="#03D0C3" transform="translate(230,60)"/>
<path d="M0 0 C2 1 2 1 3.03515625 3.73046875 C3.37417969 4.87128906 3.71320313 6.01210937 4.0625 7.1875 C4.40410156 8.31542969 4.74570312 9.44335938 5.09765625 10.60546875 C10.07034325 29.31224364 9.02554549 51.91427763 -0.625 68.8125 C-11.72896337 85.50941909 -27.8496746 94.56108158 -47.25 98.6875 C-51.98114472 99.57032185 -56.66011144 100.19571996 -61.44799805 100.66015625 C-75.72645315 102.06926699 -89.00358939 106.61045601 -98.5 117.9375 C-99.325 118.948125 -100.15 119.95875 -101 121 C-101.66 121 -102.32 121 -103 121 C-104.04497358 119.83034207 -105.036096 118.61231908 -106 117.375 C-110.03847869 112.62286084 -114.5483176 109.91278087 -120 107 C-120.61230469 106.61972656 -121.22460938 106.23945313 -121.85546875 105.84765625 C-129.8647389 101.16232161 -139.93103978 100.5315564 -148.9921875 99.32421875 C-170.35817298 96.44892972 -188.41116258 89.42105479 -202.375 72.0625 C-210.47419893 60.49547504 -212.50963071 46.21299372 -212.3125 32.4375 C-212.31572266 31.27669922 -212.31894531 30.11589844 -212.32226562 28.91992188 C-212.26782048 20.40173071 -212.26782048 20.40173071 -210 17 C-209.90203125 18.10214844 -209.8040625 19.20429688 -209.703125 20.33984375 C-207.68024021 41.4604506 -204.32245711 62.12224953 -187.26171875 76.4609375 C-175.16145923 86.01505023 -161.66782493 89.69598125 -146.625 91.4375 C-132.39382552 93.11540138 -115.47917157 96.2805638 -105.66796875 107.71875 C-105.11753906 108.4715625 -104.56710938 109.224375 -104 110 C-100.35402567 108.71057005 -97.80187408 107.19704413 -94.875 104.6875 C-83.51074698 95.63749056 -69.73377372 93.09494386 -55.6875 91.125 C-41.18405721 88.92230961 -26.52763697 85.6651795 -15.8203125 74.78515625 C-14 73 -14 73 -12 73 C-11.72929687 72.42507813 -11.45859375 71.85015625 -11.1796875 71.2578125 C-9.98534811 68.97195764 -8.62010695 66.97434706 -7.125 64.875 C-3.96006674 60.17391621 -1.74500034 55.38570561 0 50 C0.3609375 48.89398438 0.721875 47.78796875 1.09375 46.6484375 C2.51421923 40.7817897 2.2977428 34.75518419 2.26074219 28.75610352 C2.25007702 26.70233254 2.26065231 24.64944658 2.2734375 22.59570312 C2.28043062 14.86795336 1.74348798 7.54286914 0 0 Z " fill="#00564E" transform="translate(350,191)"/>
<path d="M0 0 C17.84670901 -1.15832006 33.52958852 4.18315032 46.9375 15.875 C49.33984375 18.1171875 49.33984375 18.1171875 51 20 C51 20.66 51 21.32 51 22 C51.66 22 52.32 22 53 22 C53.24621094 21.42121094 53.49242187 20.84242188 53.74609375 20.24609375 C58.89164369 11.02898716 70.11800627 5.70188874 79.76171875 2.578125 C84.84143045 1.26608777 89.63573689 0.88403813 94.875 0.9375 C96.02742188 0.94652344 97.17984375 0.95554687 98.3671875 0.96484375 C99.23601562 0.97644531 100.10484375 0.98804688 101 1 C99.95972656 1.79664063 99.95972656 1.79664063 98.8984375 2.609375 C95.61067499 5.32111443 92.62342219 8.22657634 89.625 11.25 C89.0484668 11.82919189 88.47193359 12.40838379 87.87792969 13.00512695 C84.34426755 16.57819611 80.92871939 20.21375814 77.671875 24.04296875 C74.91276434 27.27267538 72.04162117 30.40155902 69.19140625 33.55078125 C67.23707196 35.73503723 65.33440955 37.95355413 63.4375 40.1875 C59.9624745 44.1927524 56.07221092 47.61530521 52 51 C47.48716523 49.55655653 44.40410238 47.05971765 41 43.875 C40.43893555 43.35437988 39.87787109 42.83375977 39.29980469 42.29736328 C33.04586049 36.33085663 27.80761846 29.58891106 22.46191406 22.81982422 C17.49103818 16.63196369 12.02630764 10.87718514 6.3125 5.375 C5 4 5 4 4 2 C1.98330173 0.86649466 1.98330173 0.86649466 0 0 Z " fill="#03E9DF" transform="translate(196,290)"/>
<path d="M0 0 C4.79862079 0.64767021 8.7166969 2.58773657 13.01953125 4.68359375 C13.7957634 5.05799088 14.57199554 5.432388 15.37174988 5.81813049 C17.01807053 6.61463824 18.66292256 7.41418764 20.30639648 8.21655273 C22.76102141 9.41242017 25.22277114 10.59251445 27.68554688 11.77148438 C47.25294137 21.22991516 70.23414821 32.62648372 78.25 54.39453125 C78.62125 55.68423828 78.62125 55.68423828 79 57 C81.61750403 54.63104235 83.17897014 52.1097235 84.9375 49.0625 C98.72488405 27.19882404 123.53735031 15.03291584 146.375 4.875 C147.46337158 4.389104 148.55174316 3.90320801 149.6730957 3.40258789 C150.6962085 2.95778076 151.71932129 2.51297363 152.7734375 2.0546875 C153.68528809 1.65749512 154.59713867 1.26030273 155.53662109 0.85107422 C158 0 158 0 162 0 C162.33 1.98 162.66 3.96 163 6 C162.33991943 6.31227539 161.67983887 6.62455078 160.99975586 6.94628906 C157.97763941 8.37799918 154.95756264 9.81396295 151.9375 11.25 C150.89916016 11.74113281 149.86082031 12.23226562 148.79101562 12.73828125 C144.40844256 14.8252208 140.0651991 16.89774363 135.87890625 19.359375 C133 21 133 21 131 21 C131 21.66 131 22.32 131 23 C130.23816406 23.30292969 129.47632813 23.60585937 128.69140625 23.91796875 C105.98413134 33.13128254 92.64008419 47.09554098 82 69 C81.505 70.485 81.505 70.485 81 72 C80.34 72 79.68 72 79 72 C78.6596875 71.12859375 78.319375 70.2571875 77.96875 69.359375 C70.84240224 51.84675443 60.54118793 37.30541828 43 29 C39.38645085 27.56886647 35.70473152 26.35561926 32.01538086 25.13671875 C27.35966041 23.57060323 23.55647763 21.80302801 19.59765625 18.84375 C17.27722122 17.19676453 14.93946323 15.73564842 12.49609375 14.28125 C11.6774585 13.79358154 10.85882324 13.30591309 10.01538086 12.8034668 C8.35667124 11.82028329 6.69477773 10.84244882 5.02954102 9.87036133 C4.26697998 9.4142749 3.50441895 8.95818848 2.71875 8.48828125 C1.68137695 7.87786987 1.68137695 7.87786987 0.62304688 7.25512695 C-1 6 -1 6 -2 3 C-1.34 2.01 -0.68 1.02 0 0 Z " fill="#03695F" transform="translate(167,159)"/>
<path d="M0 0 C5.35516594 1.05767311 10.13412992 3.61385217 15 6 C16.37488113 6.65649901 17.74988856 7.31273354 19.125 7.96875 C20.56309034 8.66544943 22.00059316 9.36336291 23.4375 10.0625 C24.12384521 10.39064697 24.81019043 10.71879395 25.51733398 11.05688477 C29.27296372 12.91361621 32.35225786 14.64575309 35 18 C35.88718605 23.23439772 35.2614396 26.16054983 32.5 30.6875 C28.86048611 35.70482986 24.44064485 38.27967758 19 41 C11.31277638 41.66419354 4.3060912 41.86634435 -2 37 C-8.23778824 31.50277109 -10.47219348 25.15647635 -11.5 17.0625 C-11.27846363 11.25591527 -8.16308604 5.61967412 -4.51953125 1.20703125 C-3 0 -3 0 0 0 Z " fill="#1BEAE0" transform="translate(189,198)"/>
<path d="M0 0 C1.73046875 1.453125 1.73046875 1.453125 3.1875 3.25 C3.92033203 4.12398437 3.92033203 4.12398437 4.66796875 5.015625 C8.48460115 10.70139995 8.75651876 16.34076701 8 23 C5.81147048 30.01512434 0.84966413 35.79475135 -5.65625 39.26171875 C-12.04589584 41.27445719 -19.53182127 41.32720806 -25.796875 38.9296875 C-30.92264634 35.78198228 -34.79096532 31.63356692 -37 26 C-37.69489522 22.89307179 -37.53677753 21.27434292 -37 18 C-30.52609666 10.55792733 -10.47297047 -3.90729222 0 0 Z " fill="#23EAE0" transform="translate(308,199)"/>
<path d="M0 0 C6.50609629 0.5914633 12.21618742 2.65644158 18.3125 4.9375 C20.05176758 5.58525391 20.05176758 5.58525391 21.82617188 6.24609375 C35.41158324 11.37280286 48.70457245 17.20487526 62.02557373 22.97471619 C62.92592346 23.36462234 63.82627319 23.7545285 64.75390625 24.15625 C65.66150696 24.54933853 66.56910767 24.94242706 67.50421143 25.34742737 C74.36657466 28.31218332 81.25277528 31.21672692 88.15234375 34.09375 C89.1443277 34.50741821 90.13631165 34.92108643 91.15835571 35.34729004 C95.03663992 36.96295274 98.91571925 38.57664971 102.79711914 40.18481445 C105.45822855 41.28740413 108.117848 42.39352522 110.77734375 43.5 C111.56906479 43.82625366 112.36078583 44.15250732 113.17649841 44.48864746 C116.33020183 45.80273972 119.14826448 47.09884299 122 49 C113.20857679 49.52555835 106.29070815 48.28512714 98.0625 45.25 C96.07479972 44.54523431 94.08651442 43.84211645 92.09765625 43.140625 C91.09395996 42.78210449 90.09026367 42.42358398 89.05615234 42.05419922 C86.02839418 41.00979438 82.98592337 40.06741901 79.91796875 39.1484375 C72.08518536 36.77164128 64.39178003 34.02956964 56.69335938 31.25390625 C54.2148353 30.36235083 51.73251928 29.48192298 49.25 28.6015625 C47.67163341 28.0345262 46.09349913 27.46684271 44.515625 26.8984375 C43.77411194 26.63694916 43.03259888 26.37546082 42.26861572 26.10604858 C37.11435245 24.22870489 37.11435245 24.22870489 36 22 C33.4101523 20.73287678 30.83810439 19.56220965 28.1875 18.4375 C27.46240234 18.12103516 26.73730469 17.80457031 25.99023438 17.47851562 C21.14415168 15.39022198 17.35267857 14 12 14 C11.401875 13.071875 10.80375 12.14375 10.1875 11.1875 C7.99186549 7.98814686 7.66768143 7.61523716 4.3125 6.4375 C3.219375 5.963125 2.12625 5.48875 1 5 C0.0625 2.3125 0.0625 2.3125 0 0 Z " fill="#02C1B4" transform="translate(230,60)"/>
<path d="M0 0 C6.05501584 6.19262984 7.40516029 10.47029762 7.36572266 19.00854492 C7.08613604 29.69567926 2.81044617 38.24559444 -3 47 C-5.93058827 44.49661119 -7.11653054 41.85263212 -8.5625 38.3125 C-9.18318359 36.82169922 -9.18318359 36.82169922 -9.81640625 35.30078125 C-13.13847215 26.03627404 -15.7463 13.85043607 -11.94921875 4.37890625 C-8.40548395 -0.64922484 -5.82136601 -1.71216647 0 0 Z " fill="#AEF4EF" transform="translate(250,244)"/>
<path d="M0 0 C19.14 0 38.28 0 58 0 C53 15 53 15 52 16 C37.43492861 16.10804949 24.46359745 11.76372462 11.125 6.375 C10.14273438 5.97861328 9.16046875 5.58222656 8.1484375 5.17382812 C7.23578125 4.79419922 6.323125 4.41457031 5.3828125 4.0234375 C4.56184082 3.68231934 3.74086914 3.34120117 2.89501953 2.98974609 C1 2 1 2 0 0 Z " fill="#00D3C6" transform="translate(183,148)"/>
<path d="M0 0 C3.63467079 1.62400184 4.77408696 2.66113044 7 6 C7.69920885 10.79689791 7.71482085 14.77459282 5.25 19 C1.9079525 21.97070889 0.10093393 22.85728634 -4.375 23.4375 C-9.23844407 22.85053261 -10.60199844 21.47702486 -14 18 C-16.54056711 14.53559031 -16.29976466 11.19670528 -16 7 C-15.13479929 4.16843403 -14.20040404 3.17003979 -11.9375 1.25 C-7.88551553 -0.47424871 -4.34356466 -0.59122931 0 0 Z " fill="#025D54" transform="translate(296,205)"/>
<path d="M0 0 C3.81674334 1.74242631 5.46149672 3.12937637 7 7 C7.34050529 11.88057582 6.66327491 15.18366164 3.5625 19 C-0.349462 22.05323863 -2.87014324 22.39073177 -7.73828125 22.359375 C-11.32520929 21.78943134 -12.86838894 19.79773951 -15 17 C-16.78901105 13.42197791 -16.86373426 9.87734721 -16 6 C-11.62805101 -0.34784282 -7.26567998 -2.14397114 0 0 Z " fill="#015B53" transform="translate(207,205)"/>
<path d="M0 0 C1.3921875 0.3403125 1.3921875 0.3403125 2.8125 0.6875 C2.8125 1.3475 2.8125 2.0075 2.8125 2.6875 C1.33535534 3.90774994 -0.14601761 5.12503734 -1.6796875 6.2734375 C-4.27886008 8.7110035 -5.0821873 10.91151167 -5.55859375 14.421875 C-5.71384433 21.47207777 -5.14686803 26.43788905 -0.1875 31.6875 C4.34460512 35.83113896 9.17073323 36.3166137 15.1640625 36.0703125 C20.9435177 35.23493402 25.19452068 32.16455914 28.8125 27.546875 C30.78611703 23.87718084 31.27100943 19.77696608 31.8125 15.6875 C32.4725 15.6875 33.1325 15.6875 33.8125 15.6875 C35.4609985 18.98449699 35.43637606 22.13806924 34.8125 25.6875 C31.37806081 33.31677081 26.06357679 37.06196161 18.8125 40.6875 C11.12527638 41.35169354 4.1185912 41.55384435 -2.1875 36.6875 C-8.42528824 31.19027109 -10.65969348 24.84397635 -11.6875 16.75 C-11.46527816 10.92544864 -8.32924715 5.33050712 -4.71875 0.875 C-3.1875 -0.3125 -3.1875 -0.3125 0 0 Z " fill="#09796F" transform="translate(189.1875,198.3125)"/>
<path d="M0 0 C2.78717889 0.08197585 4.51752767 0.56235395 6.59765625 2.44921875 C11.83673403 8.38340758 13.4761397 13.30271358 13.31640625 21.21484375 C12.38390454 29.42316126 7.32811866 34.32303499 1.125 39.3125 C-4.68880338 42.41064522 -11.66852296 41.8756298 -18 41 C-23.95766522 38.72011135 -28.09245618 34.61980375 -31.203125 29.1015625 C-32.52595966 25.6129103 -32.3296128 22.69166339 -32 19 C-31.34 18.67 -30.68 18.34 -30 18 C-29.79246094 18.72445312 -29.58492188 19.44890625 -29.37109375 20.1953125 C-27.22066238 26.94352809 -25.01049803 31.12130423 -19 35 C-14.31313953 37.34343023 -8.08578312 36.48300734 -3 36 C1.87622765 34.33117418 4.17270477 31.18595925 6.4375 26.6875 C8.34302202 21.71334511 9.24052113 17.25056339 7.26953125 12.0859375 C5.20169957 8.11907672 2.64242067 5.5294588 -1 3 C-0.67 2.01 -0.34 1.02 0 0 Z " fill="#0A7B70" transform="translate(303,198)"/>
<path d="M0 0 C0.495 0.99 0.495 0.99 1 2 C-8.00084066 14.74345825 -18.89924056 19.42260851 -34.0078125 22.16796875 C-36.04580585 22.51416634 -38.08489502 22.85397139 -40.125 23.1875 C-41.176875 23.36474609 -42.22875 23.54199219 -43.3125 23.72460938 C-45.87410754 24.15542519 -48.43652809 24.58044702 -51 25 C-51 24.34 -51 23.68 -51 23 C-47.02755614 20.84239374 -43.04412389 18.70722272 -39.04931641 16.59130859 C-37.694251 15.86970479 -36.3422837 15.14224971 -34.99365234 14.40869141 C-33.0454544 13.35035771 -31.08678637 12.3141309 -29.125 11.28125 C-28.53195068 10.95314331 -27.93890137 10.62503662 -27.32788086 10.2869873 C-22.57925089 7.82824051 -19.19864645 7.82394619 -14 8 C-10.64784811 6.83796132 -10.64784811 6.83796132 -7.625 5.125 C-6.60664063 4.59132812 -5.58828125 4.05765625 -4.5390625 3.5078125 C-1.94269464 2.10731785 -1.94269464 2.10731785 0 0 Z " fill="#03C0B1" transform="translate(349,157)"/>
<path d="M0 0 C1.15628906 0.63228516 1.15628906 0.63228516 2.3359375 1.27734375 C3.33882812 1.82519531 4.34171875 2.37304688 5.375 2.9375 C6.37273437 3.48277344 7.37046875 4.02804688 8.3984375 4.58984375 C12.33862981 6.72559364 14.46820742 7.18497113 19 7 C19.99 6.67 20.98 6.34 22 6 C23.8659668 6.81689453 23.8659668 6.81689453 25.94921875 8.1328125 C26.71556641 8.60976562 27.48191406 9.08671875 28.27148438 9.578125 C29.46741211 10.34382812 29.46741211 10.34382812 30.6875 11.125 C31.46544922 11.61226562 32.24339844 12.09953125 33.04492188 12.6015625 C34.59961435 13.57664902 36.15157084 14.5561122 37.70068359 15.54003906 C41.1219147 17.71236461 44.56130708 19.85546421 48 22 C43.07867097 23.5551034 38.76582958 22.27975894 33.8125 21.3125 C32.90435547 21.15072266 31.99621094 20.98894531 31.06054688 20.82226562 C18.53710924 18.42873817 7.34067535 12.78856832 0 2 C0 1.34 0 0.68 0 0 Z " fill="#04C1B3" transform="translate(144,158)"/>
<path d="M0 0 C4.95 1.98 4.95 1.98 10 4 C8.39572301 5.06951799 6.79009103 6.13709258 5.17578125 7.19140625 C1.33740858 9.99516865 1.33740858 9.99516865 -0.5234375 14.21875 C-0.56237392 16.5549351 -0.36996674 18.69514976 0 21 C0.12375 21.969375 0.2475 22.93875 0.375 23.9375 C3.18489431 27.50390432 7.67758798 27.46567969 12 28 C12 28.33 12 28.66 12 29 C8.70610756 29.94111212 6.1986217 30.57458486 3.01171875 29.046875 C0.20608413 26.93248369 -1.63453092 25.17237553 -2.6953125 21.76953125 C-3.22636931 17.70490412 -3.15164931 13.96679206 -2 10 C-1.34 10 -0.68 10 0 10 C0 9.01 0 8.02 0 7 C-1.32 7 -2.64 7 -4 7 C-4 7.66 -4 8.32 -4 9 C-4.49757812 9.41507813 -4.99515625 9.83015625 -5.5078125 10.2578125 C-7.27294323 11.9663647 -7.27294323 11.9663647 -7.1796875 14.7421875 C-7.07914063 15.77601563 -6.97859375 16.80984375 -6.875 17.875 C-6.78992188 18.90367187 -6.70484375 19.93234375 -6.6171875 20.9921875 C-5.69472801 25.48771793 -3.86398924 28.1803179 -0.5625 31.3125 C5.17844159 34.03189338 11.64938131 34.07819331 17.70703125 32.12890625 C22.20854459 29.91265863 24.38800353 26.77259536 25.98046875 22.16015625 C26.72316184 19.45089553 27.39944934 16.74397943 28 14 C28.66 14.33 29.32 14.66 30 15 C29.2070078 22.89755495 26.9772105 27.71928648 21 33 C15.83230925 36.75832054 10.17192197 36.9117612 4 36 C-1.4259544 34.02025988 -5.34361772 30.39652868 -8.15234375 25.37890625 C-9.84133975 20.63882069 -9.7626899 15.92975017 -9 11 C-7.1875 7.4375 -7.1875 7.4375 -5 5 C-4.46375 4.38125 -3.9275 3.7625 -3.375 3.125 C-2 2 -2 2 0 2 C0 1.34 0 0.68 0 0 Z " fill="#30E8DE" transform="translate(192,199)"/>
<path d="M0 0 C4.22426908 4.00193913 6.73144954 6.40193041 7.3359375 12.25 C7.46551091 24.68904724 4.53261058 34.39789431 -2 45 C-3.07373312 41.77880063 -2.73361645 40.19290261 -2.02075195 36.95874023 C0.67167422 24.71587535 0.29315029 12.4701624 0 0 Z " fill="#62EEE5" transform="translate(250,245)"/>
<path d="M0 0 C0.33 0.66 0.66 1.32 1 2 C0.12134915 4.59723233 -0.82920544 7.00342068 -1.9375 9.5 C-2.34452148 10.53447266 -2.34452148 10.53447266 -2.75976562 11.58984375 C-4.03329515 14.44901507 -4.9598606 16.48006917 -7.82861328 17.9140625 C-11.86420214 19.00585315 -15.82348859 19.20882557 -20 19 C-19.43410156 18.01257813 -18.86820312 17.02515625 -18.28515625 16.0078125 C-17.54424241 14.71355794 -16.80335855 13.41928621 -16.0625 12.125 C-15.68931641 11.47402344 -15.31613281 10.82304687 -14.93164062 10.15234375 C-12.89866922 6.61253166 -12.89866922 6.61253166 -11 3 C-9.2578125 2.40234375 -9.2578125 2.40234375 -7.125 1.9375 C-4.67254759 1.38999679 -2.39288361 0.79762787 0 0 Z " fill="#00B0A3" transform="translate(321,341)"/>
<path d="M0 0 C8.83700441 -0.44933921 8.83700441 -0.44933921 13 3 C16.17725642 6.94418038 16.52516147 10.010966 16 15 C14.28798492 19.28003771 11.88385081 22.44325067 9 26 C8.67 26.99 8.34 27.98 8 29 C10.31 28.34 12.62 27.68 15 27 C12.67215787 29.91848864 11.50335345 30.91752281 7.7578125 31.53125 C-3.26278826 31.43644913 -3.26278826 31.43644913 -6.875 29.1875 C-9 27 -9 27 -9 24 C-8.46890625 24.34933594 -7.9378125 24.69867188 -7.390625 25.05859375 C-6.68421875 25.51363281 -5.9778125 25.96867187 -5.25 26.4375 C-4.55390625 26.88996094 -3.8578125 27.34242188 -3.140625 27.80859375 C-1.07042986 28.9608009 0.68696324 29.54676982 3 30 C0.63707344 27.47411298 -0.66462511 26.11179163 -4 25 C-5.6875 22.9375 -5.6875 22.9375 -7 21 C-6.67 20.34 -6.34 19.68 -6 19 C-4.9790625 19.99 -4.9790625 19.99 -3.9375 21 C-0.23305758 23.52217356 1.59165176 23.61871554 6 23 C10.24028619 20.7412063 10.24028619 20.7412063 13 17 C13.4731301 12.54792329 13.83310261 8.44887411 11.5625 4.5 C7.90320291 2.35797244 4.15503922 1.67474996 0 1 C0 0.67 0 0.34 0 0 Z " fill="#41E5DC" transform="translate(289,204)"/>
<path d="M0 0 C2 1 2 1 3.03515625 3.73046875 C3.37417969 4.87128906 3.71320313 6.01210937 4.0625 7.1875 C4.40410156 8.31542969 4.74570312 9.44335938 5.09765625 10.60546875 C6.52214109 15.96424504 7.12405374 20.94871405 7.09765625 26.4921875 C7.09443359 27.69101563 7.09121094 28.88984375 7.08789062 30.125 C7.07951172 31.3625 7.07113281 32.6 7.0625 33.875 C7.05798828 35.13570312 7.05347656 36.39640625 7.04882812 37.6953125 C7.0370796 40.79692386 7.02065167 43.89843725 7 47 C6.34 45.68 5.68 44.36 5 43 C4.01 43.66 3.02 44.32 2 45 C2.01047363 44.02764404 2.02094727 43.05528809 2.03173828 42.0534668 C2.06834231 38.39497662 2.09104515 34.73650212 2.10986328 31.07788086 C2.11982989 29.50395981 2.1334081 27.93005682 2.15087891 26.35620117 C2.24821324 17.35277556 2.13932425 8.8141606 0 0 Z " fill="#03685F" transform="translate(350,191)"/>
<path d="M0 0 C0.33 0 0.66 0 1 0 C1.09796875 1.17433594 1.1959375 2.34867188 1.296875 3.55859375 C2.12504176 12.70572428 3.31072109 21.50415442 5.67871094 30.39038086 C6.7191309 34.36374272 7.19099673 37.8935703 7 42 C4.75146979 39.20695392 3.24866239 36.58364364 1.9375 33.25 C1.61652344 32.45078125 1.29554688 31.6515625 0.96484375 30.828125 C-1.32390246 24.11941142 -2.32464203 18.23495128 -2.25 11.1875 C-2.25773438 10.43791016 -2.26546875 9.68832031 -2.2734375 8.91601562 C-2.25974378 5.08519742 -2.17235592 3.25853388 0 0 Z " fill="#86F0E9" transform="translate(239,248)"/>
<path d="M0 0 C0.99 0.33 1.98 0.66 3 1 C2.67 1.99 2.34 2.98 2 4 C1.34 4 0.68 4 0 4 C-0.48290881 11.29728872 -0.22181235 16.85217836 4 23 C4.66 23.66 5.32 24.32 6 25 C4.3125 25.8125 4.3125 25.8125 2 26 C-2.94328332 21.76290001 -5.21108388 18.4669934 -5.75 12 C-5.84796875 10.948125 -5.9459375 9.89625 -6.046875 8.8125 C-6 6 -6 6 -4 3 C-3.34 3 -2.68 3 -2 3 C-2 2.34 -2 1.68 -2 1 C-1.34 0.67 -0.68 0.34 0 0 Z " fill="#07EADF" transform="translate(190,205)"/>
<path d="M0 0 C1.9375 0.3125 1.9375 0.3125 4 1 C6.2276213 7.68286391 5.17023417 12.92519667 2.12890625 19.08203125 C0.6810036 21.54196274 -0.38350031 22.80388586 -3 24 C-6.75 24.6875 -6.75 24.6875 -10 25 C-9.52797514 20.75177626 -7.03344482 18.80010291 -4 16 C-3.34 16.33 -2.68 16.66 -2 17 C-2 17.66 -2 18.32 -2 19 C-1.34 19 -0.68 19 0 19 C-0.04125 18.0925 -0.0825 17.185 -0.125 16.25 C-0.00153147 13.0398182 0.5751571 11.75469626 2 9 C1.67 8.01 1.34 7.02 1 6 C0.64763503 4.00326516 0.31165441 2.00349261 0 0 Z " fill="#28E7DD" transform="translate(307,208)"/>
<path d="M0 0 C-3.62298919 1.05670518 -7.13432271 2.0257736 -10.84765625 2.73828125 C-15.39496853 3.87905573 -18.12733193 6.08218813 -21.4375 9.3125 C-21.9931665 9.84085449 -22.54883301 10.36920898 -23.12133789 10.91357422 C-31.40268874 19.04548536 -37.24025927 28.99386218 -43 39 C-43.33 38.34 -43.66 37.68 -44 37 C-42.95722373 34.75894573 -41.86785355 32.69020665 -40.625 30.5625 C-40.26140381 29.93504883 -39.89780762 29.30759766 -39.52319336 28.66113281 C-36.51799752 23.61122404 -33.12658099 19.04816113 -29.265625 14.609375 C-26.96276002 12.02379724 -26.96276002 12.02379724 -24.921875 9.203125 C-19.75951948 2.58766201 -15.38028376 0.61269965 -7.13671875 -0.79296875 C-4.38840199 -0.9743645 -2.57068284 -0.89497847 0 0 Z " fill="#38E0D7" transform="translate(224,93)"/>
<path d="M0 0 C0.33 0 0.66 0 1 0 C1.58984001 5.25702068 2.17367681 10.51464467 2.75195312 15.77294922 C2.95784977 17.62156061 3.17304285 19.4691338 3.390625 21.31640625 C3.48859375 22.18136719 3.5865625 23.04632813 3.6875 23.9375 C3.77386719 24.66839844 3.86023438 25.39929688 3.94921875 26.15234375 C4 28 4 28 3 31 C2.01 31.33 1.02 31.66 0 32 C-1.06637334 28.80087999 -1.12921706 26.4862254 -1.1328125 23.125 C-1.13410156 21.97515625 -1.13539063 20.8253125 -1.13671875 19.640625 C-1.13285156 18.43921875 -1.12898437 17.2378125 -1.125 16 C-1.13080078 14.19789063 -1.13080078 14.19789063 -1.13671875 12.359375 C-1.13542969 11.20953125 -1.13414062 10.0596875 -1.1328125 8.875 C-1.13168457 7.82054687 -1.13055664 6.76609375 -1.12939453 5.6796875 C-1 3 -1 3 0 0 Z " fill="#066A61" transform="translate(139,208)"/>
<path d="M0 0 C2.56089454 1.06388558 4.95601084 2.29415343 7.390625 3.62109375 C11.45096179 5.76675076 15.71324805 7.36738596 20 9 C16.79303842 10.06255562 15.05660845 9.94861004 11.91796875 8.75 C11.15033203 8.4715625 10.38269531 8.193125 9.59179688 7.90625 C7.99918852 7.30594921 6.40801417 6.701829 4.81835938 6.09375 C-0.23870398 4.26864443 -3.61990159 3.74594325 -9 5 C-10.31291016 5.26490234 -10.31291016 5.26490234 -11.65234375 5.53515625 C-12.40644531 5.70917969 -13.16054687 5.88320312 -13.9375 6.0625 C-14.70964844 6.23910156 -15.48179687 6.41570312 -16.27734375 6.59765625 C-16.84582031 6.73042969 -17.41429687 6.86320312 -18 7 C-12.977971 1.73667231 -7.42592421 -1.57112682 0 0 Z " fill="#00D3C6" transform="translate(248,73)"/>
<path d="M0 0 C2.0625 0.4375 2.0625 0.4375 4 1 C3.74515043 7.44769407 3.31454432 12.03173685 -1 17 C-1.66 17 -2.32 17 -3 17 C-3 17.66 -3 18.32 -3 19 C-4.32 19 -5.64 19 -7 19 C-6.0113007 16.33811726 -5.03251061 14.0481157 -3.4375 11.6875 C-1.51585173 8.09485323 -1.40440734 5.04407339 -1 1 C-0.67 0.67 -0.34 0.34 0 0 Z " fill="#09EAE0" transform="translate(216,211)"/>
<path d="M0 0 C2.00720923 0.28674418 4.0085944 0.61866701 6 1 C6 1.66 6 2.32 6 3 C4.63875 4.0828125 4.63875 4.0828125 3.25 5.1875 C-1.21660493 8.7776789 -3.51413007 12.77309616 -4.75 18.4375 C-4.87375 19.7059375 -4.87375 19.7059375 -5 21 C-5.33 21 -5.66 21 -6 21 C-6.99047221 16.18270336 -7.86452032 11.89045424 -5.765625 7.30078125 C-4.00921557 4.70380445 -2.2210578 2.2210578 0 0 Z " fill="#08766C" transform="translate(186,198)"/>
<path d="M0 0 C0.66 0 1.32 0 2 0 C3.6456019 3.29120381 3.64727842 6.45794866 3 10 C1.38388719 13.30893983 -0.45580137 16.32580581 -3 19 C-3.99 19 -4.98 19 -6 19 C-6.66 18.34 -7.32 17.68 -8 17 C-7.38511719 16.41605469 -7.38511719 16.41605469 -6.7578125 15.8203125 C-2.06975447 10.95280727 -0.77528727 6.64340991 0 0 Z " fill="#09857A" transform="translate(221,214)"/>
<path d="M0 0 C0.66 0.33 1.32 0.66 2 1 C1.67257812 1.53109375 1.34515625 2.0621875 1.0078125 2.609375 C-0.2642989 5.62694157 -0.1959363 7.98693023 -0.125 11.25 C-0.10695313 12.32765625 -0.08890625 13.4053125 -0.0703125 14.515625 C-0.04710937 15.33546875 -0.02390625 16.1553125 0 17 C-0.99 17 -1.98 17 -3 17 C-4.66666667 13.66666667 -6.33333333 10.33333333 -8 7 C-5.42215154 4.35247996 -3.08351902 2.05567935 0 0 Z " fill="#11E5DB" transform="translate(280,209)"/>
<path d="M0 0 C0.625 1.875 0.625 1.875 1 4 C-1.54696325 6.54696325 -3.93138047 7.20835009 -7.3125 8.4375 C-10.70043658 9.66982813 -13.72156421 10.82826548 -16.79296875 12.72265625 C-17.52128906 13.14417969 -18.24960937 13.56570312 -19 14 C-19.66 13.67 -20.32 13.34 -21 13 C-18.62788344 11.39142732 -16.25249943 9.78808248 -13.875 8.1875 C-13.20984375 7.73568359 -12.5446875 7.28386719 -11.859375 6.81835938 C-8.01981442 4.23983095 -4.1998775 1.96910145 0 0 Z " fill="#11C6B8" transform="translate(305,184)"/>
<path d="M0 0 C2 1 2 1 3.0703125 3.73046875 C3.41835938 4.87128906 3.76640625 6.01210937 4.125 7.1875 C4.47820312 8.31542969 4.83140625 9.44335938 5.1953125 10.60546875 C5.971616 13.88026362 6.15245389 16.6510963 6 20 C5.67 20 5.34 20 5 20 C4.67 23.96 4.34 27.92 4 32 C3.67 32 3.34 32 3 32 C2.98018066 31.42145264 2.96036133 30.84290527 2.93994141 30.24682617 C2.48687316 15.00830717 2.48687316 15.00830717 0 0 Z " fill="#0C867D" transform="translate(350,191)"/>
<path d="M0 0 C0.66 0 1.32 0 2 0 C1.67515625 0.56847656 1.3503125 1.13695312 1.015625 1.72265625 C-0.99993542 6.24216289 -0.23796546 11.13593727 0.375 15.9375 C3.18489431 19.50390432 7.67758798 19.46567969 12 20 C12 20.33 12 20.66 12 21 C8.70610756 21.94111212 6.1986217 22.57458486 3.01171875 21.046875 C0.20608413 18.93248369 -1.63453092 17.17237553 -2.6953125 13.76953125 C-3.22636931 9.70490412 -3.15164931 5.96679206 -2 2 C-1.34 2 -0.68 2 0 2 C0 1.34 0 0.68 0 0 Z " fill="#2EDED4" transform="translate(192,207)"/>
<path d="M0 0 C4.95 1.98 4.95 1.98 10 4 C9.01 4.66 8.02 5.32 7 6 C6.195625 6.5775 5.39125 7.155 4.5625 7.75 C2 9 2 9 -0.1875 8.25 C-0.785625 7.8375 -1.38375 7.425 -2 7 C-2.66 6.67 -3.32 6.34 -4 6 C-3.525625 5.566875 -3.05125 5.13375 -2.5625 4.6875 C-0.76313043 2.97690387 -0.76313043 2.97690387 0 0 Z " fill="#25E8DE" transform="translate(192,199)"/>
<path d="M0 0 C2.93422046 2.73860577 4.97358853 5.3823929 6.9375 8.875 C9.31806302 12.96981069 11.84583464 16.47475637 15 20 C14.67 20.66 14.34 21.32 14 22 C12.17114004 20.30672273 10.36329816 18.59769663 8.5625 16.875 C8.04623047 16.400625 7.52996094 15.92625 6.99804688 15.4375 C3.52203949 12.07508762 2.37249682 9.78924478 2 5 C1.37774395 3.31624835 0.72455635 1.64232772 0 0 Z " fill="#006D64" transform="translate(140,383)"/>
<path d="M0 0 C0.66 0.66 1.32 1.32 2 2 C1.52691406 2.40089844 1.05382812 2.80179688 0.56640625 3.21484375 C-4.88180185 7.89839107 -9.97357003 12.86885274 -15 18 C-15.33 17.34 -15.66 16.68 -16 16 C-11.1163329 10.09563077 -5.8280757 4.96906227 0 0 Z " fill="#06776D" transform="translate(140,248)"/>
<path d="M0 0 C1.65 0.33 3.3 0.66 5 1 C2.46984572 13.89761571 2.46984572 13.89761571 -3 18 C-6.6441774 20.4294516 -8.71241272 20.16179575 -13 20 C-13 19.67 -13 19.34 -13 19 C-12.39671875 18.82984375 -11.7934375 18.6596875 -11.171875 18.484375 C-4.6375309 16.64629702 -4.6375309 16.64629702 0 12 C0.96911098 7.72815881 1.39549727 4.18649181 0 0 Z " fill="#3FE9DF" transform="translate(212,209)"/>
<path d="M0 0 C3.125 1.0625 3.125 1.0625 5.125 3.0625 C4.53332031 3.08828125 3.94164062 3.1140625 3.33203125 3.140625 C-2.09302811 3.53002567 -4.70188732 4.38034175 -8.875 8.0625 C-9.865 7.7325 -10.855 7.4025 -11.875 7.0625 C-5.17442395 0.08345845 -5.17442395 0.08345845 0 0 Z " fill="#19CDC1" transform="translate(247.875,239.9375)"/>
<path d="M0 0 C6.23809641 3.00400134 12.20978654 6.19916156 18 10 C17.01 10.495 17.01 10.495 16 11 C13.40267775 10.09239638 10.90549025 9.12932108 8.375 8.0625 C7.31539062 7.62647461 7.31539062 7.62647461 6.234375 7.18164062 C4.48672427 6.46132512 2.74298085 5.73154306 1 5 C1.33 4.34 1.66 3.68 2 3 C1.34 2.67 0.68 2.34 0 2 C0 1.34 0 0.68 0 0 Z " fill="#23C3B8" transform="translate(187,184)"/>
<path d="M0 0 C0.66 0 1.32 0 2 0 C2.33 0.66 2.66 1.32 3 2 C3.66 1.67 4.32 1.34 5 1 C5 4.3 5 7.6 5 11 C3.68 11.33 2.36 11.66 1 12 C-0.3271261 8.0186217 -0.06915913 4.14954773 0 0 Z " fill="#1E837A" transform="translate(178,211)"/>
<path d="M0 0 C5.625 5.625 5.625 5.625 6 11 C4.68 9.68 3.36 8.36 2 7 C2 10.3 2 13.6 2 17 C1.67 17 1.34 17 1 17 C0.67 11.39 0.34 5.78 0 0 Z " fill="#7AEFE8" transform="translate(250,245)"/>
<path d="M0 0 C0 3 0 3 -2.1875 5.48046875 C-3.115625 6.37378906 -4.04375 7.26710938 -5 8.1875 C-5.928125 9.08855469 -6.85625 9.98960937 -7.8125 10.91796875 C-8.534375 11.60503906 -9.25625 12.29210937 -10 13 C-10 9.05279312 -8.47490891 7.98444897 -6 5 C-5.505 3.88625 -5.505 3.88625 -5 2.75 C-4 1 -4 1 -1.875 0.25 C-1.25625 0.1675 -0.6375 0.085 0 0 Z " fill="#06786E" transform="translate(352,391)"/>
<path d="M0 0 C1 3 1 3 0.125 4.8125 C-0.24625 5.534375 -0.6175 6.25625 -1 7 C-1.38290462 8.99110401 -1.72604615 10.99100513 -2 13 C-3.32 12.67 -4.64 12.34 -6 12 C-6 8 -6 8 -4.6875 6.5625 C-4.130625 6.046875 -3.57375 5.53125 -3 5 C-1.96642853 3.35394174 -0.95939668 1.69036558 0 0 Z " fill="#12EADF" transform="translate(309,214)"/>
<path d="M0 0 C0.99 0.33 1.98 0.66 3 1 C3.08096803 2.45742463 3.13917774 3.91612807 3.1875 5.375 C3.22230469 6.18710938 3.25710938 6.99921875 3.29296875 7.8359375 C3.19628906 8.55007812 3.09960938 9.26421875 3 10 C2.01 10.66 1.02 11.32 0 12 C-0.19477739 10.37585622 -0.38059458 8.75063577 -0.5625 7.125 C-0.66691406 6.22007812 -0.77132813 5.31515625 -0.87890625 4.3828125 C-1 2 -1 2 0 0 Z " fill="#00776C" transform="translate(312,209)"/>
<path d="M0 0 C0 0.66 0 1.32 0 2 C-1.59915881 2.69906942 -3.20455045 3.38389468 -4.8125 4.0625 C-5.70582031 4.44535156 -6.59914062 4.82820313 -7.51953125 5.22265625 C-10 6 -10 6 -13 5 C-11.40377344 3.96679519 -9.79770894 2.94877571 -8.1875 1.9375 C-7.29417969 1.36902344 -6.40085938 0.80054687 -5.48046875 0.21484375 C-3 -1 -3 -1 0 0 Z " fill="#34ECE2" transform="translate(243,74)"/>
<path d="M0 0 C0.66 0.33 1.32 0.66 2 1 C1.2884375 1.6496875 1.2884375 1.6496875 0.5625 2.3125 C-1.23686957 4.02309613 -1.23686957 4.02309613 -2 7 C-2.50144531 7.46019531 -3.00289062 7.92039063 -3.51953125 8.39453125 C-5.44715072 10.48490487 -5.48444681 11.88536595 -5.6875 14.6875 C-5.75324219 15.49574219 -5.81898438 16.30398437 -5.88671875 17.13671875 C-5.92410156 17.75160156 -5.96148437 18.36648437 -6 19 C-6.33 19 -6.66 19 -7 19 C-7.46747982 12.42931136 -7.47616445 8.24350693 -3 3 C-1.25 1.125 -1.25 1.125 0 0 Z " fill="#3FEDE3" transform="translate(190,201)"/>
<path d="M0 0 C0.33 0 0.66 0 1 0 C1.02696365 1.79158489 1.04637917 3.58328473 1.0625 5.375 C1.07410156 6.37273437 1.08570313 7.37046875 1.09765625 8.3984375 C1 11 1 11 0 13 C-2.0625 13.625 -2.0625 13.625 -4 14 C-4 12.35 -4 10.7 -4 9 C-3.01 8.67 -2.02 8.34 -1 8 C-0.67 5.36 -0.34 2.72 0 0 Z " fill="#13877E" transform="translate(315,211)"/>
<path d="M0 0 C0.66 0.33 1.32 0.66 2 1 C2 1.66 2 2.32 2 3 C0.04669132 4.03041513 -1.91281528 5.0490893 -3.875 6.0625 C-4.96554687 6.63097656 -6.05609375 7.19945312 -7.1796875 7.78515625 C-8.11039062 8.18605469 -9.04109375 8.58695313 -10 9 C-10.66 8.67 -11.32 8.34 -12 8 C-8.04 5.36 -4.08 2.72 0 0 Z " fill="#2CC9BE" transform="translate(296,189)"/>
<path d="M0 0 C0.66 0 1.32 0 2 0 C3.60725635 3.21451269 3.05748185 6.43612536 3 10 C2.34 10 1.68 10 1 10 C-0.60725635 6.78548731 -0.05748185 3.56387464 0 0 Z " fill="#1E8A81" transform="translate(221,214)"/>
<path d="M0 0 C2.97 0 5.94 0 9 0 C9.33 0.99 9.66 1.98 10 3 C8.72125 3.061875 7.4425 3.12375 6.125 3.1875 C5.40570313 3.22230469 4.68640625 3.25710937 3.9453125 3.29296875 C3.30335938 3.19628906 2.66140625 3.09960938 2 3 C1.34 2.01 0.68 1.02 0 0 Z " fill="#006F63" transform="translate(288,236)"/>
<path d="M0 0 C-0.33 1.65 -0.66 3.3 -1 5 C-2.32 5 -3.64 5 -5 5 C-5 4.34 -5 3.68 -5 3 C-6.65 2.67 -8.3 2.34 -10 2 C-10 1.67 -10 1.34 -10 1 C-2.25 0 -2.25 0 0 0 Z " fill="#0B8379" transform="translate(209,234)"/>
<path d="M0 0 C0.33 0.66 0.66 1.32 1 2 C0.0625 4.625 0.0625 4.625 -1 7 C-1.66 6.34 -2.32 5.68 -3 5 C-3.99 5.99 -4.98 6.98 -6 8 C-6.66 7.67 -7.32 7.34 -8 7 C-5.36 4.69 -2.72 2.38 0 0 Z " fill="#0AC0B3" transform="translate(238,247)"/>
<path d="M0 0 C1.61949011 2.57213134 2.04408751 3.67669159 1.625 6.75 C1.41875 7.4925 1.2125 8.235 1 9 C0.34 9 -0.32 9 -1 9 C-1.09765625 2.84765625 -1.09765625 2.84765625 -1 1 C-0.67 0.67 -0.34 0.34 0 0 Z " fill="#1A8178" transform="translate(272,216)"/>
<path d="M0 0 C2.66666667 2.66666667 5.33333333 5.33333333 8 8 C7.67 8.66 7.34 9.32 7 10 C5.82438854 8.90536178 4.6597511 7.79892814 3.5 6.6875 C2.52546875 5.76517578 2.52546875 5.76517578 1.53125 4.82421875 C0 3 0 3 0 0 Z " fill="#087B71" transform="translate(147,395)"/>
<path d="M0 0 C0.66 0.33 1.32 0.66 2 1 C1.01 1 0.02 1 -1 1 C-0.67 0.67 -0.34 0.34 0 0 Z M-3 2 C-2.34 2.33 -1.68 2.66 -1 3 C-2.485 5.475 -2.485 5.475 -4 8 C-4.99 7.67 -5.98 7.34 -7 7 C-6 4 -6 4 -3 2 Z " fill="#03776C" transform="translate(306,230)"/>
<path d="M0 0 C1.65 0.33 3.3 0.66 5 1 C5 1.66 5 2.32 5 3 C4.34 3 3.68 3 3 3 C2.67 3.66 2.34 4.32 2 5 C1.01 4.34 0.02 3.68 -1 3 C-0.67 2.01 -0.34 1.02 0 0 Z " fill="#128A7F" transform="translate(303,198)"/>
<path d="M0 0 C3.63 0 7.26 0 11 0 C11 1.32 11 2.64 11 4 C10.01 3.67 9.02 3.34 8 3 C8 2.34 8 1.68 8 1 C5.36 1 2.72 1 0 1 C0 0.67 0 0.34 0 0 Z " fill="#13968C" transform="translate(289,235)"/>
<path d="M0 0 C0.99 0.33 1.98 0.66 3 1 C3 2.98 3 4.96 3 7 C2.01 6.67 1.02 6.34 0 6 C0 4.02 0 2.04 0 0 Z " fill="#096F66" transform="translate(354,210)"/>
<path d="M0 0 C3.125 0.375 3.125 0.375 6 1 C6 1.66 6 2.32 6 3 C4.02 3.99 4.02 3.99 2 5 C1.67 4.01 1.34 3.02 1 2 C0.01 2 -0.98 2 -2 2 C-1.34 1.34 -0.68 0.68 0 0 Z " fill="#137A70" transform="translate(186,198)"/>
<path d="M0 0 C0.66 0.99 1.32 1.98 2 3 C1.125 6.6875 1.125 6.6875 0 10 C-0.33 10 -0.66 10 -1 10 C-1.02689216 8.52093108 -1.04634621 7.04172517 -1.0625 5.5625 C-1.07410156 4.73878906 -1.08570313 3.91507813 -1.09765625 3.06640625 C-1 1 -1 1 0 0 Z " fill="#005B52" transform="translate(139,220)"/>
<path d="M0 0 C0.33 0 0.66 0 1 0 C1 3.3 1 6.6 1 10 C-0.32 10.33 -1.64 10.66 -3 11 C-3 10.01 -3 9.02 -3 8 C-2.34 7.67 -1.68 7.34 -1 7 C-0.59270772 4.67843403 -0.25561323 2.3431213 0 0 Z " fill="#0B8D83" transform="translate(182,212)"/>
</svg>
